<mxfile host="drawio-plugin" agent="Mozilla/5.0 (X11; Linux x86_64) AppleWebKit/537.36 (KHTML, like Gecko) Chrome/122.0.0.0 Safari/537.36" modified="2024-12-15T12:38:28.167Z" etag="A3ItDCkNqIvA7wegCC9v" version="22.1.22" type="embed" pages="2">
  <diagram id="C5RBs43oDa-KdzZeNtuy" name="Structure">
    <mxGraphModel dx="2517" dy="1187" grid="0" gridSize="10" guides="1" tooltips="1" connect="1" arrows="1" fold="1" page="0" pageScale="1" pageWidth="827" pageHeight="1169" background="none" math="0" shadow="0">
      <root>
        <mxCell id="WIyWlLk6GJQsqaUBKTNV-0" />
        <mxCell id="WIyWlLk6GJQsqaUBKTNV-1" parent="WIyWlLk6GJQsqaUBKTNV-0" />
        <mxCell id="UhFkNUntWND5Q1ETPN0j-0" value="" style="rounded=0;whiteSpace=wrap;html=1;fillColor=#d5e8d4;strokeColor=#82b366;movable=1;resizable=1;rotatable=1;deletable=1;editable=1;locked=0;connectable=1;" parent="WIyWlLk6GJQsqaUBKTNV-1" vertex="1">
          <mxGeometry x="-220" y="191" width="1584" height="103" as="geometry" />
        </mxCell>
        <mxCell id="DAYwhRXH55ruIlpb_jp8-1" value="&lt;div&gt;Size Of Entry = 34 Bytes&lt;/div&gt;" style="text;html=1;align=center;verticalAlign=middle;whiteSpace=wrap;rounded=0;fontSize=16;" parent="WIyWlLk6GJQsqaUBKTNV-1" vertex="1">
          <mxGeometry x="-90" y="324" width="251" height="86" as="geometry" />
        </mxCell>
        <mxCell id="26" value="" style="group" parent="WIyWlLk6GJQsqaUBKTNV-1" vertex="1" connectable="0">
          <mxGeometry x="-208" y="285" width="488" height="39" as="geometry" />
        </mxCell>
        <mxCell id="9RUNyQODaoSe4tNgS9Tt-56" value="" style="endArrow=none;dashed=1;html=1;dashPattern=1 3;strokeWidth=2;rounded=0;fontSize=12;startSize=8;endSize=8;curved=1;entryX=0;entryY=1;entryDx=0;entryDy=0;" parent="26" edge="1">
          <mxGeometry width="50" height="50" relative="1" as="geometry">
            <mxPoint x="0.9549902152641879" y="39" as="sourcePoint" />
            <mxPoint x="0.9549902152641879" as="targetPoint" />
          </mxGeometry>
        </mxCell>
        <mxCell id="13" value="" style="group" parent="26" vertex="1" connectable="0">
          <mxGeometry y="33" width="488" height="5" as="geometry" />
        </mxCell>
        <mxCell id="9RUNyQODaoSe4tNgS9Tt-58" value="" style="endArrow=none;dashed=1;html=1;dashPattern=1 3;strokeWidth=2;rounded=0;fontSize=12;startSize=8;endSize=8;curved=1;" parent="13" edge="1">
          <mxGeometry width="50" height="50" relative="1" as="geometry">
            <mxPoint y="5" as="sourcePoint" />
            <mxPoint x="487.99999999999994" y="5" as="targetPoint" />
          </mxGeometry>
        </mxCell>
        <mxCell id="25" value="" style="endArrow=none;dashed=1;html=1;dashPattern=1 3;strokeWidth=2;rounded=0;fontSize=12;startSize=8;endSize=8;curved=1;entryX=0;entryY=1;entryDx=0;entryDy=0;" parent="26" edge="1">
          <mxGeometry width="50" height="50" relative="1" as="geometry">
            <mxPoint x="484.18003913894324" y="39" as="sourcePoint" />
            <mxPoint x="484.18003913894324" as="targetPoint" />
          </mxGeometry>
        </mxCell>
        <mxCell id="27" value="Stored Entries = 1" style="text;html=1;align=center;verticalAlign=middle;whiteSpace=wrap;rounded=0;fontSize=16;fillColor=#d5e8d4;strokeColor=#82b366;" parent="WIyWlLk6GJQsqaUBKTNV-1" vertex="1">
          <mxGeometry x="-212" y="138" width="151" height="30" as="geometry" />
        </mxCell>
        <mxCell id="39" value="" style="rounded=0;whiteSpace=wrap;html=1;fillColor=#d5e8d4;strokeColor=#82b366;movable=1;resizable=1;rotatable=1;deletable=1;editable=1;locked=0;connectable=1;" parent="WIyWlLk6GJQsqaUBKTNV-1" vertex="1">
          <mxGeometry x="-208" y="573" width="1584" height="234" as="geometry" />
        </mxCell>
        <mxCell id="41" value="Stored Entries = 2" style="text;html=1;align=center;verticalAlign=middle;whiteSpace=wrap;rounded=0;fontSize=16;fillColor=#d5e8d4;strokeColor=#82b366;" parent="WIyWlLk6GJQsqaUBKTNV-1" vertex="1">
          <mxGeometry x="-195" y="532" width="151" height="30" as="geometry" />
        </mxCell>
        <mxCell id="127" value="" style="group" parent="WIyWlLk6GJQsqaUBKTNV-1" vertex="1" connectable="0">
          <mxGeometry x="-305" y="185" width="76" height="100" as="geometry" />
        </mxCell>
        <mxCell id="125" value="&lt;div&gt;INT&lt;/div&gt;(4B)" style="rounded=0;whiteSpace=wrap;html=1;fillColor=#f8cecc;strokeColor=#b85450;container=0;gradientColor=#ea6b66;" parent="127" vertex="1">
          <mxGeometry y="40" width="76" height="60" as="geometry" />
        </mxCell>
        <mxCell id="126" value="&lt;b&gt;&lt;font style=&quot;font-size: 16px;&quot;&gt;STORED ENTRIES&lt;/font&gt;&lt;/b&gt;" style="text;html=1;strokeColor=none;fillColor=none;align=center;verticalAlign=middle;whiteSpace=wrap;rounded=0;" parent="127" vertex="1">
          <mxGeometry x="8" width="60" height="30" as="geometry" />
        </mxCell>
        <mxCell id="134" value="" style="group" parent="WIyWlLk6GJQsqaUBKTNV-1" vertex="1" connectable="0">
          <mxGeometry x="-305" y="565" width="76" height="100" as="geometry" />
        </mxCell>
        <mxCell id="135" value="3" style="rounded=0;whiteSpace=wrap;html=1;fillColor=#f8cecc;strokeColor=#b85450;container=0;gradientColor=#ea6b66;" parent="134" vertex="1">
          <mxGeometry y="40" width="76" height="60" as="geometry" />
        </mxCell>
        <mxCell id="136" value="&lt;b&gt;&lt;font style=&quot;font-size: 16px;&quot;&gt;STORED ENTRIES&lt;/font&gt;&lt;/b&gt;" style="text;html=1;strokeColor=none;fillColor=none;align=center;verticalAlign=middle;whiteSpace=wrap;rounded=0;" parent="134" vertex="1">
          <mxGeometry x="8" width="60" height="30" as="geometry" />
        </mxCell>
        <mxCell id="137" value="&lt;font style=&quot;font-size: 30px;&quot;&gt;&lt;b&gt;ADD&lt;/b&gt;&lt;/font&gt;" style="shape=process;whiteSpace=wrap;html=1;backgroundOutline=1;fillColor=#f5f5f5;gradientColor=#b3b3b3;strokeColor=#666666;" parent="WIyWlLk6GJQsqaUBKTNV-1" vertex="1">
          <mxGeometry x="479" y="455" width="164" height="60" as="geometry" />
        </mxCell>
        <mxCell id="H7bEyxn8mymeNR0-6cWi-148" value="" style="group" parent="WIyWlLk6GJQsqaUBKTNV-1" vertex="1" connectable="0">
          <mxGeometry x="504" y="-276" width="362" height="422" as="geometry" />
        </mxCell>
        <mxCell id="UhFkNUntWND5Q1ETPN0j-16" value="" style="rounded=0;whiteSpace=wrap;html=1;fillColor=#f5f5f5;fontColor=#333333;strokeColor=#666666;movable=1;resizable=1;rotatable=1;deletable=1;editable=1;locked=0;connectable=1;" parent="H7bEyxn8mymeNR0-6cWi-148" vertex="1">
          <mxGeometry x="44" y="157" width="257" height="230" as="geometry" />
        </mxCell>
        <mxCell id="H7bEyxn8mymeNR0-6cWi-147" value="" style="group" parent="H7bEyxn8mymeNR0-6cWi-148" vertex="1" connectable="0">
          <mxGeometry width="362" height="422" as="geometry" />
        </mxCell>
        <mxCell id="UhFkNUntWND5Q1ETPN0j-30" value="" style="endArrow=none;html=1;rounded=0;fontSize=12;startSize=8;endSize=8;curved=1;movable=1;resizable=1;rotatable=1;deletable=1;editable=1;locked=0;connectable=1;" parent="H7bEyxn8mymeNR0-6cWi-147" edge="1">
          <mxGeometry width="50" height="50" relative="1" as="geometry">
            <mxPoint x="44" y="329" as="sourcePoint" />
            <mxPoint x="301" y="329" as="targetPoint" />
          </mxGeometry>
        </mxCell>
        <mxCell id="H7bEyxn8mymeNR0-6cWi-146" value="" style="group" parent="H7bEyxn8mymeNR0-6cWi-147" vertex="1" connectable="0">
          <mxGeometry width="362" height="422" as="geometry" />
        </mxCell>
        <mxCell id="UhFkNUntWND5Q1ETPN0j-26" value="" style="endArrow=none;html=1;rounded=0;fontSize=12;startSize=8;endSize=8;curved=1;movable=1;resizable=1;rotatable=1;deletable=1;editable=1;locked=0;connectable=1;" parent="H7bEyxn8mymeNR0-6cWi-146" edge="1">
          <mxGeometry width="50" height="50" relative="1" as="geometry">
            <mxPoint x="44" y="269" as="sourcePoint" />
            <mxPoint x="301" y="268" as="targetPoint" />
          </mxGeometry>
        </mxCell>
        <mxCell id="H7bEyxn8mymeNR0-6cWi-144" value="" style="group" parent="H7bEyxn8mymeNR0-6cWi-146" vertex="1" connectable="0">
          <mxGeometry width="362" height="422" as="geometry" />
        </mxCell>
        <mxCell id="UhFkNUntWND5Q1ETPN0j-25" value="" style="endArrow=none;html=1;rounded=0;fontSize=12;startSize=8;endSize=8;curved=1;movable=1;resizable=1;rotatable=1;deletable=1;editable=1;locked=0;connectable=1;" parent="H7bEyxn8mymeNR0-6cWi-144" edge="1">
          <mxGeometry width="50" height="50" relative="1" as="geometry">
            <mxPoint x="44" y="209" as="sourcePoint" />
            <mxPoint x="301" y="210" as="targetPoint" />
          </mxGeometry>
        </mxCell>
        <mxCell id="H7bEyxn8mymeNR0-6cWi-141" value="" style="group" parent="H7bEyxn8mymeNR0-6cWi-144" vertex="1" connectable="0">
          <mxGeometry width="362" height="422" as="geometry" />
        </mxCell>
        <mxCell id="DAYwhRXH55ruIlpb_jp8-28" value="" style="group" parent="H7bEyxn8mymeNR0-6cWi-141" vertex="1" connectable="0">
          <mxGeometry width="362" height="89" as="geometry" />
        </mxCell>
        <mxCell id="UhFkNUntWND5Q1ETPN0j-10" value="&lt;b&gt;CreditCard&lt;/b&gt;" style="text;html=1;align=center;verticalAlign=middle;whiteSpace=wrap;rounded=0;fontSize=16;container=0;" parent="DAYwhRXH55ruIlpb_jp8-28" vertex="1">
          <mxGeometry x="150" width="60" height="30" as="geometry" />
        </mxCell>
        <mxCell id="DAYwhRXH55ruIlpb_jp8-27" value="&lt;div&gt;Amount&lt;/div&gt;(4B)" style="rounded=0;whiteSpace=wrap;html=1;fillColor=#fff2cc;strokeColor=#d6b656;container=0;" parent="DAYwhRXH55ruIlpb_jp8-28" vertex="1">
          <mxGeometry x="286" y="29" width="76" height="60" as="geometry" />
        </mxCell>
        <mxCell id="UhFkNUntWND5Q1ETPN0j-7" value="&lt;div&gt;ID&lt;/div&gt;(4B)" style="rounded=0;whiteSpace=wrap;html=1;fillColor=#fff2cc;strokeColor=#d6b656;container=0;" parent="DAYwhRXH55ruIlpb_jp8-28" vertex="1">
          <mxGeometry y="29" width="76" height="60" as="geometry" />
        </mxCell>
        <mxCell id="UhFkNUntWND5Q1ETPN0j-8" value="&lt;div&gt;Pin&lt;/div&gt;(&amp;gt;=16B)" style="rounded=0;whiteSpace=wrap;html=1;fillColor=#fff2cc;strokeColor=#d6b656;container=0;" parent="DAYwhRXH55ruIlpb_jp8-28" vertex="1">
          <mxGeometry x="115" y="29" width="171" height="60" as="geometry" />
        </mxCell>
        <mxCell id="DAYwhRXH55ruIlpb_jp8-2" value="&lt;div&gt;Pin len&lt;/div&gt;(1B)" style="rounded=0;whiteSpace=wrap;html=1;fillColor=#ffe6cc;strokeColor=#d79b00;container=0;" parent="DAYwhRXH55ruIlpb_jp8-28" vertex="1">
          <mxGeometry x="74" y="29" width="42" height="60" as="geometry" />
        </mxCell>
        <mxCell id="H7bEyxn8mymeNR0-6cWi-140" value="" style="group" parent="H7bEyxn8mymeNR0-6cWi-141" vertex="1" connectable="0">
          <mxGeometry x="58" y="102" width="229" height="320" as="geometry" />
        </mxCell>
        <mxCell id="9RUNyQODaoSe4tNgS9Tt-2" value="&lt;font color=&quot;#00ff80&quot; style=&quot;--darkreader-inline-color: #1aff8d;&quot; data-darkreader-inline-color=&quot;&quot;&gt;&lt;b&gt;&lt;font style=&quot;font-size: 25px;&quot;&gt;Value&lt;/font&gt;&lt;/b&gt;&lt;/font&gt;" style="text;whiteSpace=wrap;html=1;" parent="H7bEyxn8mymeNR0-6cWi-140" vertex="1">
          <mxGeometry x="80" width="66" height="52" as="geometry" />
        </mxCell>
        <mxCell id="9RUNyQODaoSe4tNgS9Tt-52" value="Total: 25 Bytes" style="text;html=1;align=center;verticalAlign=middle;whiteSpace=wrap;rounded=0;fontSize=16;" parent="H7bEyxn8mymeNR0-6cWi-140" vertex="1">
          <mxGeometry x="20" y="290" width="175.5" height="30" as="geometry" />
        </mxCell>
        <mxCell id="H7bEyxn8mymeNR0-6cWi-139" value="" style="group" parent="H7bEyxn8mymeNR0-6cWi-140" vertex="1" connectable="0">
          <mxGeometry y="56" width="229" height="229" as="geometry" />
        </mxCell>
        <mxCell id="UhFkNUntWND5Q1ETPN0j-17" value="ID" style="text;html=1;align=center;verticalAlign=middle;whiteSpace=wrap;rounded=0;fontSize=16;" parent="H7bEyxn8mymeNR0-6cWi-139" vertex="1">
          <mxGeometry x="80" y="9" width="72" height="30" as="geometry" />
        </mxCell>
        <mxCell id="UhFkNUntWND5Q1ETPN0j-19" value="4 Bytes" style="text;html=1;align=center;verticalAlign=middle;whiteSpace=wrap;rounded=0;fontSize=16;" parent="H7bEyxn8mymeNR0-6cWi-139" vertex="1">
          <mxGeometry y="9" width="60" height="30" as="geometry" />
        </mxCell>
        <mxCell id="UhFkNUntWND5Q1ETPN0j-21" value="" style="endArrow=none;html=1;rounded=0;fontSize=12;startSize=8;endSize=8;curved=1;entryX=0.336;entryY=0.008;entryDx=0;entryDy=0;entryPerimeter=0;movable=0;resizable=0;rotatable=0;deletable=0;editable=0;locked=1;connectable=0;" parent="H7bEyxn8mymeNR0-6cWi-139" target="UhFkNUntWND5Q1ETPN0j-16" edge="1">
          <mxGeometry width="50" height="50" relative="1" as="geometry">
            <mxPoint x="72" y="229" as="sourcePoint" />
            <mxPoint x="66" y="42" as="targetPoint" />
          </mxGeometry>
        </mxCell>
        <mxCell id="UhFkNUntWND5Q1ETPN0j-23" value="Integer" style="text;html=1;align=center;verticalAlign=middle;whiteSpace=wrap;rounded=0;fontSize=16;" parent="H7bEyxn8mymeNR0-6cWi-139" vertex="1">
          <mxGeometry x="157" y="9" width="72" height="30" as="geometry" />
        </mxCell>
        <mxCell id="UhFkNUntWND5Q1ETPN0j-24" value="" style="endArrow=none;html=1;rounded=0;fontSize=12;startSize=8;endSize=8;curved=1;entryX=0.336;entryY=0.008;entryDx=0;entryDy=0;entryPerimeter=0;movable=0;resizable=0;rotatable=0;deletable=0;editable=0;locked=1;connectable=0;" parent="H7bEyxn8mymeNR0-6cWi-139" edge="1">
          <mxGeometry width="50" height="50" relative="1" as="geometry">
            <mxPoint x="152" y="227" as="sourcePoint" />
            <mxPoint x="152" as="targetPoint" />
          </mxGeometry>
        </mxCell>
        <mxCell id="UhFkNUntWND5Q1ETPN0j-27" value="1 Byte" style="text;html=1;align=center;verticalAlign=middle;whiteSpace=wrap;rounded=0;fontSize=16;" parent="H7bEyxn8mymeNR0-6cWi-139" vertex="1">
          <mxGeometry y="69" width="60" height="30" as="geometry" />
        </mxCell>
        <mxCell id="UhFkNUntWND5Q1ETPN0j-28" value="Pin len" style="text;html=1;align=center;verticalAlign=middle;whiteSpace=wrap;rounded=0;fontSize=16;" parent="H7bEyxn8mymeNR0-6cWi-139" vertex="1">
          <mxGeometry x="80" y="69" width="72" height="30" as="geometry" />
        </mxCell>
        <mxCell id="UhFkNUntWND5Q1ETPN0j-29" value="Byte" style="text;html=1;align=center;verticalAlign=middle;whiteSpace=wrap;rounded=0;fontSize=16;" parent="H7bEyxn8mymeNR0-6cWi-139" vertex="1">
          <mxGeometry x="157" y="69" width="72" height="30" as="geometry" />
        </mxCell>
        <mxCell id="UhFkNUntWND5Q1ETPN0j-31" value="16 Bytes" style="text;html=1;align=center;verticalAlign=middle;whiteSpace=wrap;rounded=0;fontSize=16;" parent="H7bEyxn8mymeNR0-6cWi-139" vertex="1">
          <mxGeometry y="129" width="67" height="30" as="geometry" />
        </mxCell>
        <mxCell id="UhFkNUntWND5Q1ETPN0j-32" value="4 Bytes" style="text;html=1;align=center;verticalAlign=middle;whiteSpace=wrap;rounded=0;fontSize=16;" parent="H7bEyxn8mymeNR0-6cWi-139" vertex="1">
          <mxGeometry y="189" width="60" height="30" as="geometry" />
        </mxCell>
        <mxCell id="UhFkNUntWND5Q1ETPN0j-33" value="Pin" style="text;html=1;align=center;verticalAlign=middle;whiteSpace=wrap;rounded=0;fontSize=16;" parent="H7bEyxn8mymeNR0-6cWi-139" vertex="1">
          <mxGeometry x="80" y="129" width="72" height="30" as="geometry" />
        </mxCell>
        <mxCell id="UhFkNUntWND5Q1ETPN0j-34" value="Amount" style="text;html=1;align=center;verticalAlign=middle;whiteSpace=wrap;rounded=0;fontSize=16;" parent="H7bEyxn8mymeNR0-6cWi-139" vertex="1">
          <mxGeometry x="80" y="189" width="72" height="30" as="geometry" />
        </mxCell>
        <mxCell id="UhFkNUntWND5Q1ETPN0j-35" value="String" style="text;html=1;align=center;verticalAlign=middle;whiteSpace=wrap;rounded=0;fontSize=16;" parent="H7bEyxn8mymeNR0-6cWi-139" vertex="1">
          <mxGeometry x="157" y="129" width="72" height="30" as="geometry" />
        </mxCell>
        <mxCell id="UhFkNUntWND5Q1ETPN0j-36" value="Integer" style="text;html=1;align=center;verticalAlign=middle;whiteSpace=wrap;rounded=0;fontSize=16;" parent="H7bEyxn8mymeNR0-6cWi-139" vertex="1">
          <mxGeometry x="157" y="189" width="72" height="30" as="geometry" />
        </mxCell>
        <mxCell id="KwKGg6GuRS-w6h48RUuR-137" value="&lt;font color=&quot;#00ff80&quot; style=&quot;--darkreader-inline-color: #1aff8d; font-size: 25px;&quot; data-darkreader-inline-color=&quot;&quot;&gt;&lt;b&gt;NODE&lt;/b&gt;&lt;/font&gt;" style="text;whiteSpace=wrap;html=1;" parent="WIyWlLk6GJQsqaUBKTNV-1" vertex="1">
          <mxGeometry x="26" y="-137" width="82" height="52" as="geometry" />
        </mxCell>
        <mxCell id="KwKGg6GuRS-w6h48RUuR-234" value="" style="rounded=0;whiteSpace=wrap;html=1;fillColor=#d5e8d4;strokeColor=#82b366;movable=1;resizable=1;rotatable=1;deletable=1;editable=1;locked=0;connectable=1;" parent="WIyWlLk6GJQsqaUBKTNV-1" vertex="1">
          <mxGeometry x="-198" y="1993" width="1584" height="234" as="geometry" />
        </mxCell>
        <mxCell id="KwKGg6GuRS-w6h48RUuR-235" value="Stored Entries = 2" style="text;html=1;align=center;verticalAlign=middle;whiteSpace=wrap;rounded=0;fontSize=16;fillColor=#d5e8d4;strokeColor=#82b366;" parent="WIyWlLk6GJQsqaUBKTNV-1" vertex="1">
          <mxGeometry x="-185" y="1952" width="151" height="30" as="geometry" />
        </mxCell>
        <mxCell id="KwKGg6GuRS-w6h48RUuR-236" value="" style="group" parent="WIyWlLk6GJQsqaUBKTNV-1" vertex="1" connectable="0">
          <mxGeometry x="-295" y="1985" width="76" height="100" as="geometry" />
        </mxCell>
        <mxCell id="KwKGg6GuRS-w6h48RUuR-237" value="2" style="rounded=0;whiteSpace=wrap;html=1;fillColor=#f8cecc;strokeColor=#b85450;container=0;gradientColor=#ea6b66;" parent="KwKGg6GuRS-w6h48RUuR-236" vertex="1">
          <mxGeometry y="40" width="76" height="60" as="geometry" />
        </mxCell>
        <mxCell id="KwKGg6GuRS-w6h48RUuR-238" value="&lt;b&gt;&lt;font style=&quot;font-size: 16px;&quot;&gt;STORED ENTRIES&lt;/font&gt;&lt;/b&gt;" style="text;html=1;strokeColor=none;fillColor=none;align=center;verticalAlign=middle;whiteSpace=wrap;rounded=0;" parent="KwKGg6GuRS-w6h48RUuR-236" vertex="1">
          <mxGeometry x="8" width="60" height="30" as="geometry" />
        </mxCell>
        <mxCell id="KwKGg6GuRS-w6h48RUuR-305" value="" style="group" parent="WIyWlLk6GJQsqaUBKTNV-1" vertex="1" connectable="0">
          <mxGeometry x="-189" y="-53" width="485" height="90" as="geometry" />
        </mxCell>
        <mxCell id="KwKGg6GuRS-w6h48RUuR-181" value="" style="group" parent="KwKGg6GuRS-w6h48RUuR-305" vertex="1" connectable="0">
          <mxGeometry x="58" width="427" height="90" as="geometry" />
        </mxCell>
        <mxCell id="KwKGg6GuRS-w6h48RUuR-161" value="&lt;b&gt;CreditCard&lt;/b&gt;" style="text;html=1;align=center;verticalAlign=middle;whiteSpace=wrap;rounded=0;fontSize=16;container=0;movable=1;resizable=1;rotatable=1;deletable=1;editable=1;locked=0;connectable=1;" parent="KwKGg6GuRS-w6h48RUuR-181" vertex="1">
          <mxGeometry x="215" y="1" width="60" height="30" as="geometry" />
        </mxCell>
        <mxCell id="KwKGg6GuRS-w6h48RUuR-162" value="&lt;div&gt;Amount&lt;/div&gt;(4B)" style="rounded=0;whiteSpace=wrap;html=1;fillColor=#fff2cc;strokeColor=#d6b656;container=0;movable=1;resizable=1;rotatable=1;deletable=1;editable=1;locked=0;connectable=1;" parent="KwKGg6GuRS-w6h48RUuR-181" vertex="1">
          <mxGeometry x="351" y="30" width="76" height="60" as="geometry" />
        </mxCell>
        <mxCell id="KwKGg6GuRS-w6h48RUuR-163" value="&lt;div&gt;ID&lt;/div&gt;(4B)" style="rounded=0;whiteSpace=wrap;html=1;fillColor=#fff2cc;strokeColor=#d6b656;container=0;movable=1;resizable=1;rotatable=1;deletable=1;editable=1;locked=0;connectable=1;" parent="KwKGg6GuRS-w6h48RUuR-181" vertex="1">
          <mxGeometry x="65" y="30" width="76" height="60" as="geometry" />
        </mxCell>
        <mxCell id="KwKGg6GuRS-w6h48RUuR-164" value="&lt;div&gt;Pin&lt;/div&gt;(&amp;gt;=16B)" style="rounded=0;whiteSpace=wrap;html=1;fillColor=#fff2cc;strokeColor=#d6b656;container=0;movable=1;resizable=1;rotatable=1;deletable=1;editable=1;locked=0;connectable=1;" parent="KwKGg6GuRS-w6h48RUuR-181" vertex="1">
          <mxGeometry x="180" y="30" width="171" height="60" as="geometry" />
        </mxCell>
        <mxCell id="KwKGg6GuRS-w6h48RUuR-165" value="&lt;div&gt;Pin len&lt;/div&gt;(1B)" style="rounded=0;whiteSpace=wrap;html=1;fillColor=#ffe6cc;strokeColor=#d79b00;container=0;movable=1;resizable=1;rotatable=1;deletable=1;editable=1;locked=0;connectable=1;" parent="KwKGg6GuRS-w6h48RUuR-181" vertex="1">
          <mxGeometry x="139" y="30" width="42" height="60" as="geometry" />
        </mxCell>
        <mxCell id="KwKGg6GuRS-w6h48RUuR-176" value="NODE&lt;br&gt;(8B)&lt;br&gt;&lt;div&gt;&lt;/div&gt;" style="rounded=0;whiteSpace=wrap;html=1;fillColor=#dae8fc;strokeColor=#6c8ebf;container=0;movable=1;resizable=1;rotatable=1;deletable=1;editable=1;locked=0;connectable=1;" parent="KwKGg6GuRS-w6h48RUuR-181" vertex="1">
          <mxGeometry y="30" width="51" height="60" as="geometry" />
        </mxCell>
        <mxCell id="KwKGg6GuRS-w6h48RUuR-177" value="&lt;b&gt;&lt;font style=&quot;font-size: 16px;&quot;&gt;NEXT&lt;/font&gt;&lt;/b&gt;" style="text;html=1;strokeColor=none;fillColor=none;align=center;verticalAlign=middle;whiteSpace=wrap;rounded=0;movable=1;resizable=1;rotatable=1;deletable=1;editable=1;locked=0;connectable=1;container=0;" parent="KwKGg6GuRS-w6h48RUuR-181" vertex="1">
          <mxGeometry x="8" width="39" height="30" as="geometry" />
        </mxCell>
        <mxCell id="KwKGg6GuRS-w6h48RUuR-271" value="" style="group" parent="KwKGg6GuRS-w6h48RUuR-305" vertex="1" connectable="0">
          <mxGeometry width="51" height="90" as="geometry" />
        </mxCell>
        <mxCell id="KwKGg6GuRS-w6h48RUuR-272" value="&lt;div&gt;EXISTS&lt;/div&gt;(1B)" style="rounded=0;whiteSpace=wrap;html=1;fillColor=#dae8fc;strokeColor=#6c8ebf;container=0;" parent="KwKGg6GuRS-w6h48RUuR-271" vertex="1">
          <mxGeometry y="30" width="51" height="60" as="geometry" />
        </mxCell>
        <mxCell id="KwKGg6GuRS-w6h48RUuR-273" value="&lt;b&gt;&lt;font style=&quot;font-size: 16px;&quot;&gt;FLAG&lt;/font&gt;&lt;/b&gt;" style="text;html=1;strokeColor=none;fillColor=none;align=center;verticalAlign=middle;whiteSpace=wrap;rounded=0;" parent="KwKGg6GuRS-w6h48RUuR-271" vertex="1">
          <mxGeometry x="8" width="39" height="30" as="geometry" />
        </mxCell>
        <mxCell id="KwKGg6GuRS-w6h48RUuR-306" value="" style="group" parent="WIyWlLk6GJQsqaUBKTNV-1" vertex="1" connectable="0">
          <mxGeometry x="-209" y="197" width="485" height="90" as="geometry" />
        </mxCell>
        <mxCell id="KwKGg6GuRS-w6h48RUuR-307" value="" style="group" parent="KwKGg6GuRS-w6h48RUuR-306" vertex="1" connectable="0">
          <mxGeometry x="58" width="427" height="90" as="geometry" />
        </mxCell>
        <mxCell id="KwKGg6GuRS-w6h48RUuR-308" value="&lt;b&gt;CreditCard&lt;/b&gt;" style="text;html=1;align=center;verticalAlign=middle;whiteSpace=wrap;rounded=0;fontSize=16;container=0;movable=1;resizable=1;rotatable=1;deletable=1;editable=1;locked=0;connectable=1;" parent="KwKGg6GuRS-w6h48RUuR-307" vertex="1">
          <mxGeometry x="215" y="1" width="60" height="30" as="geometry" />
        </mxCell>
        <mxCell id="KwKGg6GuRS-w6h48RUuR-309" value="&lt;div&gt;Amount&lt;/div&gt;(4B)" style="rounded=0;whiteSpace=wrap;html=1;fillColor=#fff2cc;strokeColor=#d6b656;container=0;movable=1;resizable=1;rotatable=1;deletable=1;editable=1;locked=0;connectable=1;" parent="KwKGg6GuRS-w6h48RUuR-307" vertex="1">
          <mxGeometry x="351" y="30" width="76" height="60" as="geometry" />
        </mxCell>
        <mxCell id="KwKGg6GuRS-w6h48RUuR-310" value="&lt;div&gt;ID&lt;/div&gt;(4B)" style="rounded=0;whiteSpace=wrap;html=1;fillColor=#fff2cc;strokeColor=#d6b656;container=0;movable=1;resizable=1;rotatable=1;deletable=1;editable=1;locked=0;connectable=1;" parent="KwKGg6GuRS-w6h48RUuR-307" vertex="1">
          <mxGeometry x="65" y="30" width="76" height="60" as="geometry" />
        </mxCell>
        <mxCell id="KwKGg6GuRS-w6h48RUuR-311" value="&lt;div&gt;Pin&lt;/div&gt;(&amp;gt;=16B)" style="rounded=0;whiteSpace=wrap;html=1;fillColor=#fff2cc;strokeColor=#d6b656;container=0;movable=1;resizable=1;rotatable=1;deletable=1;editable=1;locked=0;connectable=1;" parent="KwKGg6GuRS-w6h48RUuR-307" vertex="1">
          <mxGeometry x="180" y="30" width="171" height="60" as="geometry" />
        </mxCell>
        <mxCell id="KwKGg6GuRS-w6h48RUuR-312" value="&lt;div&gt;Pin len&lt;/div&gt;(1B)" style="rounded=0;whiteSpace=wrap;html=1;fillColor=#ffe6cc;strokeColor=#d79b00;container=0;movable=1;resizable=1;rotatable=1;deletable=1;editable=1;locked=0;connectable=1;" parent="KwKGg6GuRS-w6h48RUuR-307" vertex="1">
          <mxGeometry x="139" y="30" width="42" height="60" as="geometry" />
        </mxCell>
        <mxCell id="KwKGg6GuRS-w6h48RUuR-313" value="OFFSET&lt;br&gt;(8B)&lt;br&gt;&lt;div&gt;&lt;/div&gt;" style="rounded=0;whiteSpace=wrap;html=1;fillColor=#dae8fc;strokeColor=#6c8ebf;container=0;movable=1;resizable=1;rotatable=1;deletable=1;editable=1;locked=0;connectable=1;" parent="KwKGg6GuRS-w6h48RUuR-307" vertex="1">
          <mxGeometry y="30" width="51" height="60" as="geometry" />
        </mxCell>
        <mxCell id="KwKGg6GuRS-w6h48RUuR-314" value="&lt;b&gt;&lt;font style=&quot;font-size: 16px;&quot;&gt;NEXT&lt;/font&gt;&lt;/b&gt;" style="text;html=1;strokeColor=none;fillColor=none;align=center;verticalAlign=middle;whiteSpace=wrap;rounded=0;movable=1;resizable=1;rotatable=1;deletable=1;editable=1;locked=0;connectable=1;container=0;" parent="KwKGg6GuRS-w6h48RUuR-307" vertex="1">
          <mxGeometry x="8" width="39" height="30" as="geometry" />
        </mxCell>
        <mxCell id="KwKGg6GuRS-w6h48RUuR-315" value="" style="group" parent="KwKGg6GuRS-w6h48RUuR-306" vertex="1" connectable="0">
          <mxGeometry width="51" height="90" as="geometry" />
        </mxCell>
        <mxCell id="KwKGg6GuRS-w6h48RUuR-316" value="&lt;div&gt;EXISTS&lt;/div&gt;(1B)" style="rounded=0;whiteSpace=wrap;html=1;fillColor=#dae8fc;strokeColor=#6c8ebf;container=0;" parent="KwKGg6GuRS-w6h48RUuR-315" vertex="1">
          <mxGeometry y="30" width="51" height="60" as="geometry" />
        </mxCell>
        <mxCell id="KwKGg6GuRS-w6h48RUuR-317" value="&lt;b&gt;&lt;font style=&quot;font-size: 16px;&quot;&gt;FLAG&lt;/font&gt;&lt;/b&gt;" style="text;html=1;strokeColor=none;fillColor=none;align=center;verticalAlign=middle;whiteSpace=wrap;rounded=0;" parent="KwKGg6GuRS-w6h48RUuR-315" vertex="1">
          <mxGeometry x="8" width="39" height="30" as="geometry" />
        </mxCell>
        <mxCell id="KwKGg6GuRS-w6h48RUuR-330" value="" style="group" parent="WIyWlLk6GJQsqaUBKTNV-1" vertex="1" connectable="0">
          <mxGeometry x="-193" y="586" width="485" height="90" as="geometry" />
        </mxCell>
        <mxCell id="KwKGg6GuRS-w6h48RUuR-331" value="" style="group" parent="KwKGg6GuRS-w6h48RUuR-330" vertex="1" connectable="0">
          <mxGeometry x="58" width="427" height="90" as="geometry" />
        </mxCell>
        <mxCell id="KwKGg6GuRS-w6h48RUuR-332" value="&lt;b&gt;CreditCard&lt;/b&gt;" style="text;html=1;align=center;verticalAlign=middle;whiteSpace=wrap;rounded=0;fontSize=16;container=0;movable=1;resizable=1;rotatable=1;deletable=1;editable=1;locked=0;connectable=1;" parent="KwKGg6GuRS-w6h48RUuR-331" vertex="1">
          <mxGeometry x="215" y="1" width="60" height="30" as="geometry" />
        </mxCell>
        <mxCell id="KwKGg6GuRS-w6h48RUuR-333" value="100&lt;div&gt;&lt;/div&gt;" style="rounded=0;whiteSpace=wrap;html=1;fillColor=#fff2cc;strokeColor=#d6b656;container=0;movable=1;resizable=1;rotatable=1;deletable=1;editable=1;locked=0;connectable=1;" parent="KwKGg6GuRS-w6h48RUuR-331" vertex="1">
          <mxGeometry x="351" y="30" width="76" height="60" as="geometry" />
        </mxCell>
        <mxCell id="KwKGg6GuRS-w6h48RUuR-334" value="2004&lt;div&gt;&lt;/div&gt;" style="rounded=0;whiteSpace=wrap;html=1;fillColor=#fff2cc;strokeColor=#d6b656;container=0;movable=1;resizable=1;rotatable=1;deletable=1;editable=1;locked=0;connectable=1;" parent="KwKGg6GuRS-w6h48RUuR-331" vertex="1">
          <mxGeometry x="65" y="30" width="76" height="60" as="geometry" />
        </mxCell>
        <mxCell id="KwKGg6GuRS-w6h48RUuR-335" value="0004&lt;div&gt;&lt;/div&gt;" style="rounded=0;whiteSpace=wrap;html=1;fillColor=#fff2cc;strokeColor=#d6b656;container=0;movable=1;resizable=1;rotatable=1;deletable=1;editable=1;locked=0;connectable=1;" parent="KwKGg6GuRS-w6h48RUuR-331" vertex="1">
          <mxGeometry x="180" y="30" width="171" height="60" as="geometry" />
        </mxCell>
        <mxCell id="KwKGg6GuRS-w6h48RUuR-336" value="4&lt;div&gt;&lt;/div&gt;" style="rounded=0;whiteSpace=wrap;html=1;fillColor=#ffe6cc;strokeColor=#d79b00;container=0;movable=1;resizable=1;rotatable=1;deletable=1;editable=1;locked=0;connectable=1;" parent="KwKGg6GuRS-w6h48RUuR-331" vertex="1">
          <mxGeometry x="139" y="30" width="42" height="60" as="geometry" />
        </mxCell>
        <mxCell id="KwKGg6GuRS-w6h48RUuR-337" value="0&lt;br&gt;&lt;div&gt;&lt;/div&gt;" style="rounded=0;whiteSpace=wrap;html=1;fillColor=#dae8fc;strokeColor=#6c8ebf;container=0;movable=1;resizable=1;rotatable=1;deletable=1;editable=1;locked=0;connectable=1;" parent="KwKGg6GuRS-w6h48RUuR-331" vertex="1">
          <mxGeometry y="30" width="51" height="60" as="geometry" />
        </mxCell>
        <mxCell id="KwKGg6GuRS-w6h48RUuR-338" value="&lt;b&gt;&lt;font style=&quot;font-size: 16px;&quot;&gt;NEXT&lt;/font&gt;&lt;/b&gt;" style="text;html=1;strokeColor=none;fillColor=none;align=center;verticalAlign=middle;whiteSpace=wrap;rounded=0;movable=1;resizable=1;rotatable=1;deletable=1;editable=1;locked=0;connectable=1;container=0;" parent="KwKGg6GuRS-w6h48RUuR-331" vertex="1">
          <mxGeometry x="8" width="39" height="30" as="geometry" />
        </mxCell>
        <mxCell id="KwKGg6GuRS-w6h48RUuR-339" value="" style="group" parent="KwKGg6GuRS-w6h48RUuR-330" vertex="1" connectable="0">
          <mxGeometry width="51" height="90" as="geometry" />
        </mxCell>
        <mxCell id="KwKGg6GuRS-w6h48RUuR-340" value="1&lt;div&gt;&lt;/div&gt;" style="rounded=0;whiteSpace=wrap;html=1;fillColor=#dae8fc;strokeColor=#6c8ebf;container=0;" parent="KwKGg6GuRS-w6h48RUuR-339" vertex="1">
          <mxGeometry y="30" width="51" height="60" as="geometry" />
        </mxCell>
        <mxCell id="KwKGg6GuRS-w6h48RUuR-341" value="&lt;b&gt;&lt;font style=&quot;font-size: 16px;&quot;&gt;FLAG&lt;/font&gt;&lt;/b&gt;" style="text;html=1;strokeColor=none;fillColor=none;align=center;verticalAlign=middle;whiteSpace=wrap;rounded=0;" parent="KwKGg6GuRS-w6h48RUuR-339" vertex="1">
          <mxGeometry x="8" width="39" height="30" as="geometry" />
        </mxCell>
        <mxCell id="KwKGg6GuRS-w6h48RUuR-354" value="" style="group" parent="WIyWlLk6GJQsqaUBKTNV-1" vertex="1" connectable="0">
          <mxGeometry x="851" y="698" width="485" height="90" as="geometry" />
        </mxCell>
        <mxCell id="KwKGg6GuRS-w6h48RUuR-355" value="" style="group" parent="KwKGg6GuRS-w6h48RUuR-354" vertex="1" connectable="0">
          <mxGeometry x="58" width="427" height="90" as="geometry" />
        </mxCell>
        <mxCell id="KwKGg6GuRS-w6h48RUuR-356" value="&lt;b&gt;CreditCard&lt;/b&gt;" style="text;html=1;align=center;verticalAlign=middle;whiteSpace=wrap;rounded=0;fontSize=16;container=0;movable=1;resizable=1;rotatable=1;deletable=1;editable=1;locked=0;connectable=1;" parent="KwKGg6GuRS-w6h48RUuR-355" vertex="1">
          <mxGeometry x="215" y="1" width="60" height="30" as="geometry" />
        </mxCell>
        <mxCell id="KwKGg6GuRS-w6h48RUuR-357" value="674&lt;div&gt;&lt;/div&gt;" style="rounded=0;whiteSpace=wrap;html=1;fillColor=#fff2cc;strokeColor=#d6b656;container=0;movable=1;resizable=1;rotatable=1;deletable=1;editable=1;locked=0;connectable=1;" parent="KwKGg6GuRS-w6h48RUuR-355" vertex="1">
          <mxGeometry x="351" y="30" width="76" height="60" as="geometry" />
        </mxCell>
        <mxCell id="KwKGg6GuRS-w6h48RUuR-358" value="9809&lt;div&gt;&lt;/div&gt;" style="rounded=0;whiteSpace=wrap;html=1;fillColor=#fff2cc;strokeColor=#d6b656;container=0;movable=1;resizable=1;rotatable=1;deletable=1;editable=1;locked=0;connectable=1;" parent="KwKGg6GuRS-w6h48RUuR-355" vertex="1">
          <mxGeometry x="65" y="30" width="76" height="60" as="geometry" />
        </mxCell>
        <mxCell id="KwKGg6GuRS-w6h48RUuR-359" value="0999&lt;div&gt;&lt;/div&gt;" style="rounded=0;whiteSpace=wrap;html=1;fillColor=#fff2cc;strokeColor=#d6b656;container=0;movable=1;resizable=1;rotatable=1;deletable=1;editable=1;locked=0;connectable=1;" parent="KwKGg6GuRS-w6h48RUuR-355" vertex="1">
          <mxGeometry x="180" y="30" width="171" height="60" as="geometry" />
        </mxCell>
        <mxCell id="KwKGg6GuRS-w6h48RUuR-360" value="4&lt;div&gt;&lt;/div&gt;" style="rounded=0;whiteSpace=wrap;html=1;fillColor=#ffe6cc;strokeColor=#d79b00;container=0;movable=1;resizable=1;rotatable=1;deletable=1;editable=1;locked=0;connectable=1;" parent="KwKGg6GuRS-w6h48RUuR-355" vertex="1">
          <mxGeometry x="139" y="30" width="42" height="60" as="geometry" />
        </mxCell>
        <mxCell id="KwKGg6GuRS-w6h48RUuR-361" value="0&lt;br&gt;&lt;div&gt;&lt;/div&gt;" style="rounded=0;whiteSpace=wrap;html=1;fillColor=#dae8fc;strokeColor=#6c8ebf;container=0;movable=1;resizable=1;rotatable=1;deletable=1;editable=1;locked=0;connectable=1;" parent="KwKGg6GuRS-w6h48RUuR-355" vertex="1">
          <mxGeometry y="30" width="51" height="60" as="geometry" />
        </mxCell>
        <mxCell id="KwKGg6GuRS-w6h48RUuR-362" value="&lt;b&gt;&lt;font style=&quot;font-size: 16px;&quot;&gt;NEXT&lt;/font&gt;&lt;/b&gt;" style="text;html=1;strokeColor=none;fillColor=none;align=center;verticalAlign=middle;whiteSpace=wrap;rounded=0;movable=1;resizable=1;rotatable=1;deletable=1;editable=1;locked=0;connectable=1;container=0;" parent="KwKGg6GuRS-w6h48RUuR-355" vertex="1">
          <mxGeometry x="8" width="39" height="30" as="geometry" />
        </mxCell>
        <mxCell id="KwKGg6GuRS-w6h48RUuR-363" value="" style="group" parent="KwKGg6GuRS-w6h48RUuR-354" vertex="1" connectable="0">
          <mxGeometry width="51" height="90" as="geometry" />
        </mxCell>
        <mxCell id="KwKGg6GuRS-w6h48RUuR-364" value="1&lt;div&gt;&lt;/div&gt;" style="rounded=0;whiteSpace=wrap;html=1;fillColor=#dae8fc;strokeColor=#6c8ebf;container=0;" parent="KwKGg6GuRS-w6h48RUuR-363" vertex="1">
          <mxGeometry y="30" width="51" height="60" as="geometry" />
        </mxCell>
        <mxCell id="KwKGg6GuRS-w6h48RUuR-365" value="&lt;b&gt;&lt;font style=&quot;font-size: 16px;&quot;&gt;FLAG&lt;/font&gt;&lt;/b&gt;" style="text;html=1;strokeColor=none;fillColor=none;align=center;verticalAlign=middle;whiteSpace=wrap;rounded=0;" parent="KwKGg6GuRS-w6h48RUuR-363" vertex="1">
          <mxGeometry x="8" width="39" height="30" as="geometry" />
        </mxCell>
        <mxCell id="KwKGg6GuRS-w6h48RUuR-367" value="" style="group" parent="WIyWlLk6GJQsqaUBKTNV-1" vertex="1" connectable="0">
          <mxGeometry x="-183" y="2016" width="485" height="90" as="geometry" />
        </mxCell>
        <mxCell id="KwKGg6GuRS-w6h48RUuR-368" value="" style="group" parent="KwKGg6GuRS-w6h48RUuR-367" vertex="1" connectable="0">
          <mxGeometry x="58" width="427" height="90" as="geometry" />
        </mxCell>
        <mxCell id="KwKGg6GuRS-w6h48RUuR-369" value="&lt;b&gt;CreditCard&lt;/b&gt;" style="text;html=1;align=center;verticalAlign=middle;whiteSpace=wrap;rounded=0;fontSize=16;container=0;movable=1;resizable=1;rotatable=1;deletable=1;editable=1;locked=0;connectable=1;" parent="KwKGg6GuRS-w6h48RUuR-368" vertex="1">
          <mxGeometry x="215" y="1" width="60" height="30" as="geometry" />
        </mxCell>
        <mxCell id="KwKGg6GuRS-w6h48RUuR-370" value="100&lt;div&gt;&lt;/div&gt;" style="rounded=0;whiteSpace=wrap;html=1;fillColor=#fff2cc;strokeColor=#d6b656;container=0;movable=1;resizable=1;rotatable=1;deletable=1;editable=1;locked=0;connectable=1;" parent="KwKGg6GuRS-w6h48RUuR-368" vertex="1">
          <mxGeometry x="351" y="30" width="76" height="60" as="geometry" />
        </mxCell>
        <mxCell id="KwKGg6GuRS-w6h48RUuR-371" value="2004&lt;div&gt;&lt;/div&gt;" style="rounded=0;whiteSpace=wrap;html=1;fillColor=#fff2cc;strokeColor=#d6b656;container=0;movable=1;resizable=1;rotatable=1;deletable=1;editable=1;locked=0;connectable=1;" parent="KwKGg6GuRS-w6h48RUuR-368" vertex="1">
          <mxGeometry x="65" y="30" width="76" height="60" as="geometry" />
        </mxCell>
        <mxCell id="KwKGg6GuRS-w6h48RUuR-372" value="0004&lt;div&gt;&lt;/div&gt;" style="rounded=0;whiteSpace=wrap;html=1;fillColor=#fff2cc;strokeColor=#d6b656;container=0;movable=1;resizable=1;rotatable=1;deletable=1;editable=1;locked=0;connectable=1;" parent="KwKGg6GuRS-w6h48RUuR-368" vertex="1">
          <mxGeometry x="180" y="30" width="171" height="60" as="geometry" />
        </mxCell>
        <mxCell id="KwKGg6GuRS-w6h48RUuR-373" value="4&lt;div&gt;&lt;/div&gt;" style="rounded=0;whiteSpace=wrap;html=1;fillColor=#ffe6cc;strokeColor=#d79b00;container=0;movable=1;resizable=1;rotatable=1;deletable=1;editable=1;locked=0;connectable=1;" parent="KwKGg6GuRS-w6h48RUuR-368" vertex="1">
          <mxGeometry x="139" y="30" width="42" height="60" as="geometry" />
        </mxCell>
        <mxCell id="KwKGg6GuRS-w6h48RUuR-374" value="0&lt;br&gt;&lt;div&gt;&lt;/div&gt;" style="rounded=0;whiteSpace=wrap;html=1;fillColor=#dae8fc;strokeColor=#6c8ebf;container=0;movable=1;resizable=1;rotatable=1;deletable=1;editable=1;locked=0;connectable=1;" parent="KwKGg6GuRS-w6h48RUuR-368" vertex="1">
          <mxGeometry y="30" width="51" height="60" as="geometry" />
        </mxCell>
        <mxCell id="KwKGg6GuRS-w6h48RUuR-375" value="&lt;b&gt;&lt;font style=&quot;font-size: 16px;&quot;&gt;NEXT&lt;/font&gt;&lt;/b&gt;" style="text;html=1;strokeColor=none;fillColor=none;align=center;verticalAlign=middle;whiteSpace=wrap;rounded=0;movable=1;resizable=1;rotatable=1;deletable=1;editable=1;locked=0;connectable=1;container=0;" parent="KwKGg6GuRS-w6h48RUuR-368" vertex="1">
          <mxGeometry x="8" width="39" height="30" as="geometry" />
        </mxCell>
        <mxCell id="KwKGg6GuRS-w6h48RUuR-376" value="" style="group" parent="KwKGg6GuRS-w6h48RUuR-367" vertex="1" connectable="0">
          <mxGeometry width="51" height="90" as="geometry" />
        </mxCell>
        <mxCell id="KwKGg6GuRS-w6h48RUuR-377" value="1&lt;div&gt;&lt;/div&gt;" style="rounded=0;whiteSpace=wrap;html=1;fillColor=#dae8fc;strokeColor=#6c8ebf;container=0;" parent="KwKGg6GuRS-w6h48RUuR-376" vertex="1">
          <mxGeometry y="30" width="51" height="60" as="geometry" />
        </mxCell>
        <mxCell id="KwKGg6GuRS-w6h48RUuR-378" value="&lt;b&gt;&lt;font style=&quot;font-size: 16px;&quot;&gt;FLAG&lt;/font&gt;&lt;/b&gt;" style="text;html=1;strokeColor=none;fillColor=none;align=center;verticalAlign=middle;whiteSpace=wrap;rounded=0;" parent="KwKGg6GuRS-w6h48RUuR-376" vertex="1">
          <mxGeometry x="8" width="39" height="30" as="geometry" />
        </mxCell>
        <mxCell id="KwKGg6GuRS-w6h48RUuR-391" value="" style="group" parent="WIyWlLk6GJQsqaUBKTNV-1" vertex="1" connectable="0">
          <mxGeometry x="851" y="2018" width="485" height="90" as="geometry" />
        </mxCell>
        <mxCell id="KwKGg6GuRS-w6h48RUuR-392" value="" style="group" parent="KwKGg6GuRS-w6h48RUuR-391" vertex="1" connectable="0">
          <mxGeometry x="58" width="427" height="90" as="geometry" />
        </mxCell>
        <mxCell id="KwKGg6GuRS-w6h48RUuR-393" value="&lt;b&gt;CreditCard&lt;/b&gt;" style="text;html=1;align=center;verticalAlign=middle;whiteSpace=wrap;rounded=0;fontSize=16;container=0;movable=1;resizable=1;rotatable=1;deletable=1;editable=1;locked=0;connectable=1;" parent="KwKGg6GuRS-w6h48RUuR-392" vertex="1">
          <mxGeometry x="215" y="1" width="60" height="30" as="geometry" />
        </mxCell>
        <mxCell id="KwKGg6GuRS-w6h48RUuR-394" value="674&lt;div&gt;&lt;/div&gt;" style="rounded=0;whiteSpace=wrap;html=1;fillColor=#fff2cc;strokeColor=#d6b656;container=0;movable=1;resizable=1;rotatable=1;deletable=1;editable=1;locked=0;connectable=1;" parent="KwKGg6GuRS-w6h48RUuR-392" vertex="1">
          <mxGeometry x="351" y="30" width="76" height="60" as="geometry" />
        </mxCell>
        <mxCell id="KwKGg6GuRS-w6h48RUuR-395" value="9809&lt;div&gt;&lt;/div&gt;" style="rounded=0;whiteSpace=wrap;html=1;fillColor=#fff2cc;strokeColor=#d6b656;container=0;movable=1;resizable=1;rotatable=1;deletable=1;editable=1;locked=0;connectable=1;" parent="KwKGg6GuRS-w6h48RUuR-392" vertex="1">
          <mxGeometry x="65" y="30" width="76" height="60" as="geometry" />
        </mxCell>
        <mxCell id="KwKGg6GuRS-w6h48RUuR-396" value="0999&lt;div&gt;&lt;/div&gt;" style="rounded=0;whiteSpace=wrap;html=1;fillColor=#fff2cc;strokeColor=#d6b656;container=0;movable=1;resizable=1;rotatable=1;deletable=1;editable=1;locked=0;connectable=1;" parent="KwKGg6GuRS-w6h48RUuR-392" vertex="1">
          <mxGeometry x="180" y="30" width="171" height="60" as="geometry" />
        </mxCell>
        <mxCell id="KwKGg6GuRS-w6h48RUuR-397" value="4&lt;div&gt;&lt;/div&gt;" style="rounded=0;whiteSpace=wrap;html=1;fillColor=#ffe6cc;strokeColor=#d79b00;container=0;movable=1;resizable=1;rotatable=1;deletable=1;editable=1;locked=0;connectable=1;" parent="KwKGg6GuRS-w6h48RUuR-392" vertex="1">
          <mxGeometry x="139" y="30" width="42" height="60" as="geometry" />
        </mxCell>
        <mxCell id="KwKGg6GuRS-w6h48RUuR-398" value="0&lt;br&gt;&lt;div&gt;&lt;/div&gt;" style="rounded=0;whiteSpace=wrap;html=1;fillColor=#dae8fc;strokeColor=#6c8ebf;container=0;movable=1;resizable=1;rotatable=1;deletable=1;editable=1;locked=0;connectable=1;" parent="KwKGg6GuRS-w6h48RUuR-392" vertex="1">
          <mxGeometry y="30" width="51" height="60" as="geometry" />
        </mxCell>
        <mxCell id="KwKGg6GuRS-w6h48RUuR-399" value="&lt;b&gt;&lt;font style=&quot;font-size: 16px;&quot;&gt;NEXT&lt;/font&gt;&lt;/b&gt;" style="text;html=1;strokeColor=none;fillColor=none;align=center;verticalAlign=middle;whiteSpace=wrap;rounded=0;movable=1;resizable=1;rotatable=1;deletable=1;editable=1;locked=0;connectable=1;container=0;" parent="KwKGg6GuRS-w6h48RUuR-392" vertex="1">
          <mxGeometry x="8" width="39" height="30" as="geometry" />
        </mxCell>
        <mxCell id="KwKGg6GuRS-w6h48RUuR-400" value="" style="group" parent="KwKGg6GuRS-w6h48RUuR-391" vertex="1" connectable="0">
          <mxGeometry width="51" height="90" as="geometry" />
        </mxCell>
        <mxCell id="KwKGg6GuRS-w6h48RUuR-401" value="0&lt;div&gt;&lt;/div&gt;" style="rounded=0;whiteSpace=wrap;html=1;fillColor=#dae8fc;strokeColor=#6c8ebf;container=0;" parent="KwKGg6GuRS-w6h48RUuR-400" vertex="1">
          <mxGeometry y="30" width="51" height="60" as="geometry" />
        </mxCell>
        <mxCell id="KwKGg6GuRS-w6h48RUuR-402" value="&lt;b&gt;&lt;font style=&quot;font-size: 16px;&quot;&gt;FLAG&lt;/font&gt;&lt;/b&gt;" style="text;html=1;strokeColor=none;fillColor=none;align=center;verticalAlign=middle;whiteSpace=wrap;rounded=0;" parent="KwKGg6GuRS-w6h48RUuR-400" vertex="1">
          <mxGeometry x="8" width="39" height="30" as="geometry" />
        </mxCell>
        <mxCell id="138" value="" style="rounded=0;whiteSpace=wrap;html=1;" vertex="1" parent="WIyWlLk6GJQsqaUBKTNV-1">
          <mxGeometry x="287" y="227" width="1049" height="60" as="geometry" />
        </mxCell>
        <mxCell id="139" value="" style="rounded=0;whiteSpace=wrap;html=1;" vertex="1" parent="WIyWlLk6GJQsqaUBKTNV-1">
          <mxGeometry x="307" y="617" width="1049" height="60" as="geometry" />
        </mxCell>
        <mxCell id="140" value="" style="endArrow=none;dashed=1;html=1;dashPattern=1 3;strokeWidth=2;rounded=0;exitX=0.5;exitY=1;exitDx=0;exitDy=0;entryX=0.5;entryY=0;entryDx=0;entryDy=0;" edge="1" parent="WIyWlLk6GJQsqaUBKTNV-1" source="139" target="139">
          <mxGeometry width="50" height="50" relative="1" as="geometry">
            <mxPoint x="811" y="580" as="sourcePoint" />
            <mxPoint x="861" y="530" as="targetPoint" />
          </mxGeometry>
        </mxCell>
        <mxCell id="141" style="edgeStyle=orthogonalEdgeStyle;rounded=0;orthogonalLoop=1;jettySize=auto;html=1;entryX=0.807;entryY=0.487;entryDx=0;entryDy=0;entryPerimeter=0;" edge="1" parent="WIyWlLk6GJQsqaUBKTNV-1" source="KwKGg6GuRS-w6h48RUuR-356" target="139">
          <mxGeometry relative="1" as="geometry" />
        </mxCell>
        <mxCell id="175" value="" style="rounded=0;whiteSpace=wrap;html=1;fillColor=#d5e8d4;strokeColor=#82b366;movable=1;resizable=1;rotatable=1;deletable=1;editable=1;locked=0;connectable=1;" vertex="1" parent="WIyWlLk6GJQsqaUBKTNV-1">
          <mxGeometry x="-196" y="1505" width="1584" height="234" as="geometry" />
        </mxCell>
        <mxCell id="176" value="Stored Entries = 2" style="text;html=1;align=center;verticalAlign=middle;whiteSpace=wrap;rounded=0;fontSize=16;fillColor=#d5e8d4;strokeColor=#82b366;" vertex="1" parent="WIyWlLk6GJQsqaUBKTNV-1">
          <mxGeometry x="-183" y="1464" width="151" height="30" as="geometry" />
        </mxCell>
        <mxCell id="177" value="" style="group" vertex="1" connectable="0" parent="WIyWlLk6GJQsqaUBKTNV-1">
          <mxGeometry x="-293" y="1497" width="76" height="100" as="geometry" />
        </mxCell>
        <mxCell id="178" value="3" style="rounded=0;whiteSpace=wrap;html=1;fillColor=#f8cecc;strokeColor=#b85450;container=0;gradientColor=#ea6b66;" vertex="1" parent="177">
          <mxGeometry y="40" width="76" height="60" as="geometry" />
        </mxCell>
        <mxCell id="179" value="&lt;b&gt;&lt;font style=&quot;font-size: 16px;&quot;&gt;STORED ENTRIES&lt;/font&gt;&lt;/b&gt;" style="text;html=1;strokeColor=none;fillColor=none;align=center;verticalAlign=middle;whiteSpace=wrap;rounded=0;" vertex="1" parent="177">
          <mxGeometry x="8" width="60" height="30" as="geometry" />
        </mxCell>
        <mxCell id="180" value="&lt;font style=&quot;font-size: 30px;&quot;&gt;&lt;b&gt;ADD&lt;br&gt;COLLISION&lt;br&gt;&lt;/b&gt;&lt;/font&gt;" style="shape=process;whiteSpace=wrap;html=1;backgroundOutline=1;fillColor=#f5f5f5;gradientColor=#b3b3b3;strokeColor=#666666;" vertex="1" parent="WIyWlLk6GJQsqaUBKTNV-1">
          <mxGeometry x="461" y="1355" width="277" height="92" as="geometry" />
        </mxCell>
        <mxCell id="181" value="" style="group" vertex="1" connectable="0" parent="WIyWlLk6GJQsqaUBKTNV-1">
          <mxGeometry x="-181" y="1541" width="485" height="90" as="geometry" />
        </mxCell>
        <mxCell id="182" value="" style="group" vertex="1" connectable="0" parent="181">
          <mxGeometry x="58" width="427" height="90" as="geometry" />
        </mxCell>
        <mxCell id="183" value="&lt;b&gt;CreditCard&lt;/b&gt;" style="text;html=1;align=center;verticalAlign=middle;whiteSpace=wrap;rounded=0;fontSize=16;container=0;movable=1;resizable=1;rotatable=1;deletable=1;editable=1;locked=0;connectable=1;" vertex="1" parent="182">
          <mxGeometry x="215" y="1" width="60" height="30" as="geometry" />
        </mxCell>
        <mxCell id="184" value="100&lt;div&gt;&lt;/div&gt;" style="rounded=0;whiteSpace=wrap;html=1;fillColor=#fff2cc;strokeColor=#d6b656;container=0;movable=1;resizable=1;rotatable=1;deletable=1;editable=1;locked=0;connectable=1;" vertex="1" parent="182">
          <mxGeometry x="351" y="30" width="76" height="60" as="geometry" />
        </mxCell>
        <mxCell id="185" value="2004&lt;div&gt;&lt;/div&gt;" style="rounded=0;whiteSpace=wrap;html=1;fillColor=#fff2cc;strokeColor=#d6b656;container=0;movable=1;resizable=1;rotatable=1;deletable=1;editable=1;locked=0;connectable=1;" vertex="1" parent="182">
          <mxGeometry x="65" y="30" width="76" height="60" as="geometry" />
        </mxCell>
        <mxCell id="186" value="0004&lt;div&gt;&lt;/div&gt;" style="rounded=0;whiteSpace=wrap;html=1;fillColor=#fff2cc;strokeColor=#d6b656;container=0;movable=1;resizable=1;rotatable=1;deletable=1;editable=1;locked=0;connectable=1;" vertex="1" parent="182">
          <mxGeometry x="180" y="30" width="171" height="60" as="geometry" />
        </mxCell>
        <mxCell id="187" value="4&lt;div&gt;&lt;/div&gt;" style="rounded=0;whiteSpace=wrap;html=1;fillColor=#ffe6cc;strokeColor=#d79b00;container=0;movable=1;resizable=1;rotatable=1;deletable=1;editable=1;locked=0;connectable=1;" vertex="1" parent="182">
          <mxGeometry x="139" y="30" width="42" height="60" as="geometry" />
        </mxCell>
        <mxCell id="188" value="108&lt;br&gt;&lt;div&gt;&lt;/div&gt;" style="rounded=0;whiteSpace=wrap;html=1;fillColor=#dae8fc;strokeColor=#6c8ebf;container=0;movable=1;resizable=1;rotatable=1;deletable=1;editable=1;locked=0;connectable=1;" vertex="1" parent="182">
          <mxGeometry y="30" width="51" height="60" as="geometry" />
        </mxCell>
        <mxCell id="189" value="&lt;b&gt;&lt;font style=&quot;font-size: 16px;&quot;&gt;NEXT&lt;/font&gt;&lt;/b&gt;" style="text;html=1;strokeColor=none;fillColor=none;align=center;verticalAlign=middle;whiteSpace=wrap;rounded=0;movable=1;resizable=1;rotatable=1;deletable=1;editable=1;locked=0;connectable=1;container=0;" vertex="1" parent="182">
          <mxGeometry x="8" width="39" height="30" as="geometry" />
        </mxCell>
        <mxCell id="190" value="" style="group" vertex="1" connectable="0" parent="181">
          <mxGeometry width="51" height="90" as="geometry" />
        </mxCell>
        <mxCell id="191" value="1&lt;div&gt;&lt;/div&gt;" style="rounded=0;whiteSpace=wrap;html=1;fillColor=#dae8fc;strokeColor=#6c8ebf;container=0;" vertex="1" parent="190">
          <mxGeometry y="30" width="51" height="60" as="geometry" />
        </mxCell>
        <mxCell id="192" value="&lt;b&gt;&lt;font style=&quot;font-size: 16px;&quot;&gt;FLAG&lt;/font&gt;&lt;/b&gt;" style="text;html=1;strokeColor=none;fillColor=none;align=center;verticalAlign=middle;whiteSpace=wrap;rounded=0;" vertex="1" parent="190">
          <mxGeometry x="8" width="39" height="30" as="geometry" />
        </mxCell>
        <mxCell id="193" value="" style="group" vertex="1" connectable="0" parent="WIyWlLk6GJQsqaUBKTNV-1">
          <mxGeometry x="863" y="1540" width="485" height="90" as="geometry" />
        </mxCell>
        <mxCell id="194" value="" style="group" vertex="1" connectable="0" parent="193">
          <mxGeometry x="58" width="427" height="90" as="geometry" />
        </mxCell>
        <mxCell id="195" value="&lt;b&gt;CreditCard&lt;/b&gt;" style="text;html=1;align=center;verticalAlign=middle;whiteSpace=wrap;rounded=0;fontSize=16;container=0;movable=1;resizable=1;rotatable=1;deletable=1;editable=1;locked=0;connectable=1;" vertex="1" parent="194">
          <mxGeometry x="215" y="1" width="60" height="30" as="geometry" />
        </mxCell>
        <mxCell id="196" value="674&lt;div&gt;&lt;/div&gt;" style="rounded=0;whiteSpace=wrap;html=1;fillColor=#fff2cc;strokeColor=#d6b656;container=0;movable=1;resizable=1;rotatable=1;deletable=1;editable=1;locked=0;connectable=1;" vertex="1" parent="194">
          <mxGeometry x="351" y="30" width="76" height="60" as="geometry" />
        </mxCell>
        <mxCell id="197" value="9809&lt;div&gt;&lt;/div&gt;" style="rounded=0;whiteSpace=wrap;html=1;fillColor=#fff2cc;strokeColor=#d6b656;container=0;movable=1;resizable=1;rotatable=1;deletable=1;editable=1;locked=0;connectable=1;" vertex="1" parent="194">
          <mxGeometry x="65" y="30" width="76" height="60" as="geometry" />
        </mxCell>
        <mxCell id="198" value="0999&lt;div&gt;&lt;/div&gt;" style="rounded=0;whiteSpace=wrap;html=1;fillColor=#fff2cc;strokeColor=#d6b656;container=0;movable=1;resizable=1;rotatable=1;deletable=1;editable=1;locked=0;connectable=1;" vertex="1" parent="194">
          <mxGeometry x="180" y="30" width="171" height="60" as="geometry" />
        </mxCell>
        <mxCell id="199" value="4&lt;div&gt;&lt;/div&gt;" style="rounded=0;whiteSpace=wrap;html=1;fillColor=#ffe6cc;strokeColor=#d79b00;container=0;movable=1;resizable=1;rotatable=1;deletable=1;editable=1;locked=0;connectable=1;" vertex="1" parent="194">
          <mxGeometry x="139" y="30" width="42" height="60" as="geometry" />
        </mxCell>
        <mxCell id="200" value="0&lt;br&gt;&lt;div&gt;&lt;/div&gt;" style="rounded=0;whiteSpace=wrap;html=1;fillColor=#dae8fc;strokeColor=#6c8ebf;container=0;movable=1;resizable=1;rotatable=1;deletable=1;editable=1;locked=0;connectable=1;" vertex="1" parent="194">
          <mxGeometry y="30" width="51" height="60" as="geometry" />
        </mxCell>
        <mxCell id="201" value="&lt;b&gt;&lt;font style=&quot;font-size: 16px;&quot;&gt;NEXT&lt;/font&gt;&lt;/b&gt;" style="text;html=1;strokeColor=none;fillColor=none;align=center;verticalAlign=middle;whiteSpace=wrap;rounded=0;movable=1;resizable=1;rotatable=1;deletable=1;editable=1;locked=0;connectable=1;container=0;" vertex="1" parent="194">
          <mxGeometry x="8" width="39" height="30" as="geometry" />
        </mxCell>
        <mxCell id="202" value="" style="group" vertex="1" connectable="0" parent="193">
          <mxGeometry width="51" height="90" as="geometry" />
        </mxCell>
        <mxCell id="203" value="1&lt;div&gt;&lt;/div&gt;" style="rounded=0;whiteSpace=wrap;html=1;fillColor=#dae8fc;strokeColor=#6c8ebf;container=0;" vertex="1" parent="202">
          <mxGeometry y="30" width="51" height="60" as="geometry" />
        </mxCell>
        <mxCell id="204" value="&lt;b&gt;&lt;font style=&quot;font-size: 16px;&quot;&gt;FLAG&lt;/font&gt;&lt;/b&gt;" style="text;html=1;strokeColor=none;fillColor=none;align=center;verticalAlign=middle;whiteSpace=wrap;rounded=0;" vertex="1" parent="202">
          <mxGeometry x="8" width="39" height="30" as="geometry" />
        </mxCell>
        <mxCell id="205" value="" style="rounded=0;whiteSpace=wrap;html=1;" vertex="1" parent="WIyWlLk6GJQsqaUBKTNV-1">
          <mxGeometry x="319" y="1572" width="529" height="60" as="geometry" />
        </mxCell>
        <mxCell id="209" value="&lt;font style=&quot;font-size: 30px;&quot;&gt;&lt;b&gt;REMOVE&lt;br&gt;COLLISION&lt;br&gt;&lt;/b&gt;&lt;/font&gt;" style="shape=process;whiteSpace=wrap;html=1;backgroundOutline=1;fillColor=#f5f5f5;gradientColor=#b3b3b3;strokeColor=#666666;" vertex="1" parent="WIyWlLk6GJQsqaUBKTNV-1">
          <mxGeometry x="455.5" y="1858" width="277" height="92" as="geometry" />
        </mxCell>
        <mxCell id="211" value="" style="rounded=0;whiteSpace=wrap;html=1;" vertex="1" parent="WIyWlLk6GJQsqaUBKTNV-1">
          <mxGeometry x="309" y="2047" width="529" height="60" as="geometry" />
        </mxCell>
        <mxCell id="212" value="" style="rounded=0;whiteSpace=wrap;html=1;fillColor=#d5e8d4;strokeColor=#82b366;movable=1;resizable=1;rotatable=1;deletable=1;editable=1;locked=0;connectable=1;" vertex="1" parent="WIyWlLk6GJQsqaUBKTNV-1">
          <mxGeometry x="-202.5" y="1005" width="1584" height="234" as="geometry" />
        </mxCell>
        <mxCell id="213" value="Stored Entries = 2" style="text;html=1;align=center;verticalAlign=middle;whiteSpace=wrap;rounded=0;fontSize=16;fillColor=#d5e8d4;strokeColor=#82b366;" vertex="1" parent="WIyWlLk6GJQsqaUBKTNV-1">
          <mxGeometry x="-189.5" y="964" width="151" height="30" as="geometry" />
        </mxCell>
        <mxCell id="214" value="" style="group" vertex="1" connectable="0" parent="WIyWlLk6GJQsqaUBKTNV-1">
          <mxGeometry x="-299.5" y="997" width="76" height="100" as="geometry" />
        </mxCell>
        <mxCell id="215" value="2" style="rounded=0;whiteSpace=wrap;html=1;fillColor=#f8cecc;strokeColor=#b85450;container=0;gradientColor=#ea6b66;" vertex="1" parent="214">
          <mxGeometry y="40" width="76" height="60" as="geometry" />
        </mxCell>
        <mxCell id="216" value="&lt;b&gt;&lt;font style=&quot;font-size: 16px;&quot;&gt;STORED ENTRIES&lt;/font&gt;&lt;/b&gt;" style="text;html=1;strokeColor=none;fillColor=none;align=center;verticalAlign=middle;whiteSpace=wrap;rounded=0;" vertex="1" parent="214">
          <mxGeometry x="8" width="60" height="30" as="geometry" />
        </mxCell>
        <mxCell id="217" value="" style="group" vertex="1" connectable="0" parent="WIyWlLk6GJQsqaUBKTNV-1">
          <mxGeometry x="-187.5" y="1028" width="485" height="90" as="geometry" />
        </mxCell>
        <mxCell id="218" value="" style="group" vertex="1" connectable="0" parent="217">
          <mxGeometry x="58" width="427" height="90" as="geometry" />
        </mxCell>
        <mxCell id="219" value="&lt;b&gt;CreditCard&lt;/b&gt;" style="text;html=1;align=center;verticalAlign=middle;whiteSpace=wrap;rounded=0;fontSize=16;container=0;movable=1;resizable=1;rotatable=1;deletable=1;editable=1;locked=0;connectable=1;" vertex="1" parent="218">
          <mxGeometry x="215" y="1" width="60" height="30" as="geometry" />
        </mxCell>
        <mxCell id="220" value="100&lt;div&gt;&lt;/div&gt;" style="rounded=0;whiteSpace=wrap;html=1;fillColor=#fff2cc;strokeColor=#d6b656;container=0;movable=1;resizable=1;rotatable=1;deletable=1;editable=1;locked=0;connectable=1;" vertex="1" parent="218">
          <mxGeometry x="351" y="30" width="76" height="60" as="geometry" />
        </mxCell>
        <mxCell id="221" value="2004&lt;div&gt;&lt;/div&gt;" style="rounded=0;whiteSpace=wrap;html=1;fillColor=#fff2cc;strokeColor=#d6b656;container=0;movable=1;resizable=1;rotatable=1;deletable=1;editable=1;locked=0;connectable=1;" vertex="1" parent="218">
          <mxGeometry x="65" y="30" width="76" height="60" as="geometry" />
        </mxCell>
        <mxCell id="222" value="0004&lt;div&gt;&lt;/div&gt;" style="rounded=0;whiteSpace=wrap;html=1;fillColor=#fff2cc;strokeColor=#d6b656;container=0;movable=1;resizable=1;rotatable=1;deletable=1;editable=1;locked=0;connectable=1;" vertex="1" parent="218">
          <mxGeometry x="180" y="30" width="171" height="60" as="geometry" />
        </mxCell>
        <mxCell id="223" value="4&lt;div&gt;&lt;/div&gt;" style="rounded=0;whiteSpace=wrap;html=1;fillColor=#ffe6cc;strokeColor=#d79b00;container=0;movable=1;resizable=1;rotatable=1;deletable=1;editable=1;locked=0;connectable=1;" vertex="1" parent="218">
          <mxGeometry x="139" y="30" width="42" height="60" as="geometry" />
        </mxCell>
        <mxCell id="224" value="0&lt;br&gt;&lt;div&gt;&lt;/div&gt;" style="rounded=0;whiteSpace=wrap;html=1;fillColor=#dae8fc;strokeColor=#6c8ebf;container=0;movable=1;resizable=1;rotatable=1;deletable=1;editable=1;locked=0;connectable=1;" vertex="1" parent="218">
          <mxGeometry y="30" width="51" height="60" as="geometry" />
        </mxCell>
        <mxCell id="225" value="&lt;b&gt;&lt;font style=&quot;font-size: 16px;&quot;&gt;NEXT&lt;/font&gt;&lt;/b&gt;" style="text;html=1;strokeColor=none;fillColor=none;align=center;verticalAlign=middle;whiteSpace=wrap;rounded=0;movable=1;resizable=1;rotatable=1;deletable=1;editable=1;locked=0;connectable=1;container=0;" vertex="1" parent="218">
          <mxGeometry x="8" width="39" height="30" as="geometry" />
        </mxCell>
        <mxCell id="226" value="" style="group" vertex="1" connectable="0" parent="217">
          <mxGeometry width="51" height="90" as="geometry" />
        </mxCell>
        <mxCell id="227" value="1&lt;div&gt;&lt;/div&gt;" style="rounded=0;whiteSpace=wrap;html=1;fillColor=#dae8fc;strokeColor=#6c8ebf;container=0;" vertex="1" parent="226">
          <mxGeometry y="30" width="51" height="60" as="geometry" />
        </mxCell>
        <mxCell id="228" value="&lt;b&gt;&lt;font style=&quot;font-size: 16px;&quot;&gt;FLAG&lt;/font&gt;&lt;/b&gt;" style="text;html=1;strokeColor=none;fillColor=none;align=center;verticalAlign=middle;whiteSpace=wrap;rounded=0;" vertex="1" parent="226">
          <mxGeometry x="8" width="39" height="30" as="geometry" />
        </mxCell>
        <mxCell id="229" value="" style="group" vertex="1" connectable="0" parent="WIyWlLk6GJQsqaUBKTNV-1">
          <mxGeometry x="846.5" y="1030" width="485" height="90" as="geometry" />
        </mxCell>
        <mxCell id="230" value="" style="group" vertex="1" connectable="0" parent="229">
          <mxGeometry x="58" width="427" height="90" as="geometry" />
        </mxCell>
        <mxCell id="231" value="&lt;b&gt;CreditCard&lt;/b&gt;" style="text;html=1;align=center;verticalAlign=middle;whiteSpace=wrap;rounded=0;fontSize=16;container=0;movable=1;resizable=1;rotatable=1;deletable=1;editable=1;locked=0;connectable=1;" vertex="1" parent="230">
          <mxGeometry x="215" y="1" width="60" height="30" as="geometry" />
        </mxCell>
        <mxCell id="232" value="674&lt;div&gt;&lt;/div&gt;" style="rounded=0;whiteSpace=wrap;html=1;fillColor=#fff2cc;strokeColor=#d6b656;container=0;movable=1;resizable=1;rotatable=1;deletable=1;editable=1;locked=0;connectable=1;" vertex="1" parent="230">
          <mxGeometry x="351" y="30" width="76" height="60" as="geometry" />
        </mxCell>
        <mxCell id="233" value="9809&lt;div&gt;&lt;/div&gt;" style="rounded=0;whiteSpace=wrap;html=1;fillColor=#fff2cc;strokeColor=#d6b656;container=0;movable=1;resizable=1;rotatable=1;deletable=1;editable=1;locked=0;connectable=1;" vertex="1" parent="230">
          <mxGeometry x="65" y="30" width="76" height="60" as="geometry" />
        </mxCell>
        <mxCell id="234" value="0999&lt;div&gt;&lt;/div&gt;" style="rounded=0;whiteSpace=wrap;html=1;fillColor=#fff2cc;strokeColor=#d6b656;container=0;movable=1;resizable=1;rotatable=1;deletable=1;editable=1;locked=0;connectable=1;" vertex="1" parent="230">
          <mxGeometry x="180" y="30" width="171" height="60" as="geometry" />
        </mxCell>
        <mxCell id="235" value="4&lt;div&gt;&lt;/div&gt;" style="rounded=0;whiteSpace=wrap;html=1;fillColor=#ffe6cc;strokeColor=#d79b00;container=0;movable=1;resizable=1;rotatable=1;deletable=1;editable=1;locked=0;connectable=1;" vertex="1" parent="230">
          <mxGeometry x="139" y="30" width="42" height="60" as="geometry" />
        </mxCell>
        <mxCell id="236" value="0&lt;br&gt;&lt;div&gt;&lt;/div&gt;" style="rounded=0;whiteSpace=wrap;html=1;fillColor=#dae8fc;strokeColor=#6c8ebf;container=0;movable=1;resizable=1;rotatable=1;deletable=1;editable=1;locked=0;connectable=1;" vertex="1" parent="230">
          <mxGeometry y="30" width="51" height="60" as="geometry" />
        </mxCell>
        <mxCell id="237" value="&lt;b&gt;&lt;font style=&quot;font-size: 16px;&quot;&gt;NEXT&lt;/font&gt;&lt;/b&gt;" style="text;html=1;strokeColor=none;fillColor=none;align=center;verticalAlign=middle;whiteSpace=wrap;rounded=0;movable=1;resizable=1;rotatable=1;deletable=1;editable=1;locked=0;connectable=1;container=0;" vertex="1" parent="230">
          <mxGeometry x="8" width="39" height="30" as="geometry" />
        </mxCell>
        <mxCell id="238" value="" style="group" vertex="1" connectable="0" parent="229">
          <mxGeometry width="51" height="90" as="geometry" />
        </mxCell>
        <mxCell id="239" value="0&lt;div&gt;&lt;/div&gt;" style="rounded=0;whiteSpace=wrap;html=1;fillColor=#dae8fc;strokeColor=#6c8ebf;container=0;" vertex="1" parent="238">
          <mxGeometry y="30" width="51" height="60" as="geometry" />
        </mxCell>
        <mxCell id="240" value="&lt;b&gt;&lt;font style=&quot;font-size: 16px;&quot;&gt;FLAG&lt;/font&gt;&lt;/b&gt;" style="text;html=1;strokeColor=none;fillColor=none;align=center;verticalAlign=middle;whiteSpace=wrap;rounded=0;" vertex="1" parent="238">
          <mxGeometry x="8" width="39" height="30" as="geometry" />
        </mxCell>
        <mxCell id="243" value="" style="rounded=0;whiteSpace=wrap;html=1;" vertex="1" parent="WIyWlLk6GJQsqaUBKTNV-1">
          <mxGeometry x="304.5" y="1059" width="529" height="60" as="geometry" />
        </mxCell>
        <mxCell id="244" value="&lt;span style=&quot;font-size: 30px;&quot;&gt;&lt;b&gt;REMOVE&lt;/b&gt;&lt;/span&gt;" style="shape=process;whiteSpace=wrap;html=1;backgroundOutline=1;fillColor=#f5f5f5;gradientColor=#b3b3b3;strokeColor=#666666;" vertex="1" parent="WIyWlLk6GJQsqaUBKTNV-1">
          <mxGeometry x="474.5" y="887" width="239" height="60" as="geometry" />
        </mxCell>
        <mxCell id="245" value="Offset: 108" style="text;html=1;strokeColor=none;fillColor=none;align=center;verticalAlign=middle;whiteSpace=wrap;rounded=0;" vertex="1" parent="WIyWlLk6GJQsqaUBKTNV-1">
          <mxGeometry x="830" y="586" width="60" height="30" as="geometry" />
        </mxCell>
        <mxCell id="247" value="Offset: 108" style="text;html=1;strokeColor=none;fillColor=none;align=center;verticalAlign=middle;whiteSpace=wrap;rounded=0;" vertex="1" parent="WIyWlLk6GJQsqaUBKTNV-1">
          <mxGeometry x="825" y="1518" width="60" height="30" as="geometry" />
        </mxCell>
        <mxCell id="248" value="" style="endArrow=none;dashed=1;html=1;dashPattern=1 3;strokeWidth=2;rounded=0;entryX=0.5;entryY=1;entryDx=0;entryDy=0;" edge="1" parent="WIyWlLk6GJQsqaUBKTNV-1" target="247">
          <mxGeometry width="50" height="50" relative="1" as="geometry">
            <mxPoint x="855" y="1736" as="sourcePoint" />
            <mxPoint x="804" y="1671" as="targetPoint" />
          </mxGeometry>
        </mxCell>
        <mxCell id="-XJPGZjfDVbzP9hAWu_B-248" value="&lt;font color=&quot;#ff6666&quot; style=&quot;font-size: 30px;&quot;&gt;&lt;b&gt;!&lt;/b&gt;&lt;/font&gt;" style="text;html=1;strokeColor=none;fillColor=none;align=center;verticalAlign=middle;whiteSpace=wrap;rounded=0;" vertex="1" parent="WIyWlLk6GJQsqaUBKTNV-1">
          <mxGeometry x="840.5" y="1129" width="60" height="30" as="geometry" />
        </mxCell>
        <mxCell id="-XJPGZjfDVbzP9hAWu_B-249" value="&lt;font color=&quot;#ff6666&quot; style=&quot;font-size: 30px;&quot;&gt;&lt;b&gt;!&lt;/b&gt;&lt;/font&gt;" style="text;html=1;strokeColor=none;fillColor=none;align=center;verticalAlign=middle;whiteSpace=wrap;rounded=0;" vertex="1" parent="WIyWlLk6GJQsqaUBKTNV-1">
          <mxGeometry x="-128" y="1635" width="60" height="30" as="geometry" />
        </mxCell>
        <mxCell id="-XJPGZjfDVbzP9hAWu_B-250" value="&lt;font color=&quot;#ff6666&quot; style=&quot;font-size: 30px;&quot;&gt;&lt;b&gt;!&lt;/b&gt;&lt;/font&gt;" style="text;html=1;strokeColor=none;fillColor=none;align=center;verticalAlign=middle;whiteSpace=wrap;rounded=0;" vertex="1" parent="WIyWlLk6GJQsqaUBKTNV-1">
          <mxGeometry x="845" y="2114" width="60" height="30" as="geometry" />
        </mxCell>
        <mxCell id="-XJPGZjfDVbzP9hAWu_B-251" value="&lt;font color=&quot;#ff6666&quot; style=&quot;font-size: 30px;&quot;&gt;&lt;b&gt;!&lt;/b&gt;&lt;/font&gt;" style="text;html=1;strokeColor=none;fillColor=none;align=center;verticalAlign=middle;whiteSpace=wrap;rounded=0;" vertex="1" parent="WIyWlLk6GJQsqaUBKTNV-1">
          <mxGeometry x="-144" y="2112" width="60" height="30" as="geometry" />
        </mxCell>
        <mxCell id="-XJPGZjfDVbzP9hAWu_B-252" value="" style="rounded=0;whiteSpace=wrap;html=1;fillColor=#d5e8d4;strokeColor=#82b366;movable=1;resizable=1;rotatable=1;deletable=1;editable=1;locked=0;connectable=1;" vertex="1" parent="WIyWlLk6GJQsqaUBKTNV-1">
          <mxGeometry x="1802" y="1643" width="1584" height="234" as="geometry" />
        </mxCell>
        <mxCell id="-XJPGZjfDVbzP9hAWu_B-253" value="" style="group" vertex="1" connectable="0" parent="WIyWlLk6GJQsqaUBKTNV-1">
          <mxGeometry x="1648" y="1435" width="485" height="90" as="geometry" />
        </mxCell>
        <mxCell id="-XJPGZjfDVbzP9hAWu_B-254" value="" style="group" vertex="1" connectable="0" parent="-XJPGZjfDVbzP9hAWu_B-253">
          <mxGeometry x="58" width="427" height="90" as="geometry" />
        </mxCell>
        <mxCell id="-XJPGZjfDVbzP9hAWu_B-255" value="&lt;b&gt;CreditCard&lt;/b&gt;" style="text;html=1;align=center;verticalAlign=middle;whiteSpace=wrap;rounded=0;fontSize=16;container=0;movable=1;resizable=1;rotatable=1;deletable=1;editable=1;locked=0;connectable=1;" vertex="1" parent="-XJPGZjfDVbzP9hAWu_B-254">
          <mxGeometry x="215" y="1" width="60" height="30" as="geometry" />
        </mxCell>
        <mxCell id="-XJPGZjfDVbzP9hAWu_B-256" value="14517&lt;div&gt;&lt;/div&gt;" style="rounded=0;whiteSpace=wrap;html=1;fillColor=#fff2cc;strokeColor=#d6b656;container=0;movable=1;resizable=1;rotatable=1;deletable=1;editable=1;locked=0;connectable=1;" vertex="1" parent="-XJPGZjfDVbzP9hAWu_B-254">
          <mxGeometry x="351" y="30" width="76" height="60" as="geometry" />
        </mxCell>
        <mxCell id="-XJPGZjfDVbzP9hAWu_B-257" value="1002&lt;div&gt;&lt;/div&gt;" style="rounded=0;whiteSpace=wrap;html=1;fillColor=#fff2cc;strokeColor=#d6b656;container=0;movable=1;resizable=1;rotatable=1;deletable=1;editable=1;locked=0;connectable=1;" vertex="1" parent="-XJPGZjfDVbzP9hAWu_B-254">
          <mxGeometry x="65" y="30" width="76" height="60" as="geometry" />
        </mxCell>
        <mxCell id="-XJPGZjfDVbzP9hAWu_B-258" value="0002&lt;div&gt;&lt;/div&gt;" style="rounded=0;whiteSpace=wrap;html=1;fillColor=#fff2cc;strokeColor=#d6b656;container=0;movable=1;resizable=1;rotatable=1;deletable=1;editable=1;locked=0;connectable=1;" vertex="1" parent="-XJPGZjfDVbzP9hAWu_B-254">
          <mxGeometry x="180" y="30" width="171" height="60" as="geometry" />
        </mxCell>
        <mxCell id="-XJPGZjfDVbzP9hAWu_B-259" value="4&lt;div&gt;&lt;/div&gt;" style="rounded=0;whiteSpace=wrap;html=1;fillColor=#ffe6cc;strokeColor=#d79b00;container=0;movable=1;resizable=1;rotatable=1;deletable=1;editable=1;locked=0;connectable=1;" vertex="1" parent="-XJPGZjfDVbzP9hAWu_B-254">
          <mxGeometry x="139" y="30" width="42" height="60" as="geometry" />
        </mxCell>
        <mxCell id="-XJPGZjfDVbzP9hAWu_B-260" value="0&lt;br&gt;&lt;div&gt;&lt;/div&gt;" style="rounded=0;whiteSpace=wrap;html=1;fillColor=#dae8fc;strokeColor=#6c8ebf;container=0;movable=1;resizable=1;rotatable=1;deletable=1;editable=1;locked=0;connectable=1;" vertex="1" parent="-XJPGZjfDVbzP9hAWu_B-254">
          <mxGeometry y="30" width="51" height="60" as="geometry" />
        </mxCell>
        <mxCell id="-XJPGZjfDVbzP9hAWu_B-261" value="&lt;b&gt;&lt;font style=&quot;font-size: 16px;&quot;&gt;NEXT&lt;/font&gt;&lt;/b&gt;" style="text;html=1;strokeColor=none;fillColor=none;align=center;verticalAlign=middle;whiteSpace=wrap;rounded=0;movable=1;resizable=1;rotatable=1;deletable=1;editable=1;locked=0;connectable=1;container=0;" vertex="1" parent="-XJPGZjfDVbzP9hAWu_B-254">
          <mxGeometry x="8" width="39" height="30" as="geometry" />
        </mxCell>
        <mxCell id="-XJPGZjfDVbzP9hAWu_B-262" value="" style="group" vertex="1" connectable="0" parent="-XJPGZjfDVbzP9hAWu_B-253">
          <mxGeometry width="51" height="90" as="geometry" />
        </mxCell>
        <mxCell id="-XJPGZjfDVbzP9hAWu_B-263" value="1&lt;div&gt;&lt;/div&gt;" style="rounded=0;whiteSpace=wrap;html=1;fillColor=#dae8fc;strokeColor=#6c8ebf;container=0;" vertex="1" parent="-XJPGZjfDVbzP9hAWu_B-262">
          <mxGeometry y="30" width="51" height="60" as="geometry" />
        </mxCell>
        <mxCell id="-XJPGZjfDVbzP9hAWu_B-264" value="&lt;b&gt;&lt;font style=&quot;font-size: 16px;&quot;&gt;FLAG&lt;/font&gt;&lt;/b&gt;" style="text;html=1;strokeColor=none;fillColor=none;align=center;verticalAlign=middle;whiteSpace=wrap;rounded=0;" vertex="1" parent="-XJPGZjfDVbzP9hAWu_B-262">
          <mxGeometry x="8" width="39" height="30" as="geometry" />
        </mxCell>
        <mxCell id="-XJPGZjfDVbzP9hAWu_B-265" value="" style="rounded=0;whiteSpace=wrap;html=1;" vertex="1" parent="WIyWlLk6GJQsqaUBKTNV-1">
          <mxGeometry x="1813" y="1784" width="487" height="60" as="geometry" />
        </mxCell>
        <mxCell id="-XJPGZjfDVbzP9hAWu_B-266" value="" style="group" vertex="1" connectable="0" parent="WIyWlLk6GJQsqaUBKTNV-1">
          <mxGeometry x="1813" y="1663" width="485" height="90" as="geometry" />
        </mxCell>
        <mxCell id="-XJPGZjfDVbzP9hAWu_B-267" value="" style="group" vertex="1" connectable="0" parent="-XJPGZjfDVbzP9hAWu_B-266">
          <mxGeometry x="58" width="427" height="90" as="geometry" />
        </mxCell>
        <mxCell id="-XJPGZjfDVbzP9hAWu_B-268" value="&lt;b&gt;CreditCard&lt;/b&gt;" style="text;html=1;align=center;verticalAlign=middle;whiteSpace=wrap;rounded=0;fontSize=16;container=0;movable=1;resizable=1;rotatable=1;deletable=1;editable=1;locked=0;connectable=1;" vertex="1" parent="-XJPGZjfDVbzP9hAWu_B-267">
          <mxGeometry x="215" y="1" width="60" height="30" as="geometry" />
        </mxCell>
        <mxCell id="-XJPGZjfDVbzP9hAWu_B-269" value="100&lt;div&gt;&lt;/div&gt;" style="rounded=0;whiteSpace=wrap;html=1;fillColor=#fff2cc;strokeColor=#d6b656;container=0;movable=1;resizable=1;rotatable=1;deletable=1;editable=1;locked=0;connectable=1;" vertex="1" parent="-XJPGZjfDVbzP9hAWu_B-267">
          <mxGeometry x="351" y="30" width="76" height="60" as="geometry" />
        </mxCell>
        <mxCell id="-XJPGZjfDVbzP9hAWu_B-270" value="2004&lt;div&gt;&lt;/div&gt;" style="rounded=0;whiteSpace=wrap;html=1;fillColor=#fff2cc;strokeColor=#d6b656;container=0;movable=1;resizable=1;rotatable=1;deletable=1;editable=1;locked=0;connectable=1;" vertex="1" parent="-XJPGZjfDVbzP9hAWu_B-267">
          <mxGeometry x="65" y="30" width="76" height="60" as="geometry" />
        </mxCell>
        <mxCell id="-XJPGZjfDVbzP9hAWu_B-271" value="0004&lt;div&gt;&lt;/div&gt;" style="rounded=0;whiteSpace=wrap;html=1;fillColor=#fff2cc;strokeColor=#d6b656;container=0;movable=1;resizable=1;rotatable=1;deletable=1;editable=1;locked=0;connectable=1;" vertex="1" parent="-XJPGZjfDVbzP9hAWu_B-267">
          <mxGeometry x="180" y="30" width="171" height="60" as="geometry" />
        </mxCell>
        <mxCell id="-XJPGZjfDVbzP9hAWu_B-272" value="4&lt;div&gt;&lt;/div&gt;" style="rounded=0;whiteSpace=wrap;html=1;fillColor=#ffe6cc;strokeColor=#d79b00;container=0;movable=1;resizable=1;rotatable=1;deletable=1;editable=1;locked=0;connectable=1;" vertex="1" parent="-XJPGZjfDVbzP9hAWu_B-267">
          <mxGeometry x="139" y="30" width="42" height="60" as="geometry" />
        </mxCell>
        <mxCell id="-XJPGZjfDVbzP9hAWu_B-273" value="0&lt;br&gt;&lt;div&gt;&lt;/div&gt;" style="rounded=0;whiteSpace=wrap;html=1;fillColor=#dae8fc;strokeColor=#6c8ebf;container=0;movable=1;resizable=1;rotatable=1;deletable=1;editable=1;locked=0;connectable=1;" vertex="1" parent="-XJPGZjfDVbzP9hAWu_B-267">
          <mxGeometry y="30" width="51" height="60" as="geometry" />
        </mxCell>
        <mxCell id="-XJPGZjfDVbzP9hAWu_B-274" value="&lt;b&gt;&lt;font style=&quot;font-size: 16px;&quot;&gt;NEXT&lt;/font&gt;&lt;/b&gt;" style="text;html=1;strokeColor=none;fillColor=none;align=center;verticalAlign=middle;whiteSpace=wrap;rounded=0;movable=1;resizable=1;rotatable=1;deletable=1;editable=1;locked=0;connectable=1;container=0;" vertex="1" parent="-XJPGZjfDVbzP9hAWu_B-267">
          <mxGeometry x="8" width="39" height="30" as="geometry" />
        </mxCell>
        <mxCell id="-XJPGZjfDVbzP9hAWu_B-275" value="" style="group" vertex="1" connectable="0" parent="-XJPGZjfDVbzP9hAWu_B-266">
          <mxGeometry width="51" height="90" as="geometry" />
        </mxCell>
        <mxCell id="-XJPGZjfDVbzP9hAWu_B-276" value="1&lt;div&gt;&lt;/div&gt;" style="rounded=0;whiteSpace=wrap;html=1;fillColor=#dae8fc;strokeColor=#6c8ebf;container=0;" vertex="1" parent="-XJPGZjfDVbzP9hAWu_B-275">
          <mxGeometry y="30" width="51" height="60" as="geometry" />
        </mxCell>
        <mxCell id="-XJPGZjfDVbzP9hAWu_B-277" value="&lt;b&gt;&lt;font style=&quot;font-size: 16px;&quot;&gt;FLAG&lt;/font&gt;&lt;/b&gt;" style="text;html=1;strokeColor=none;fillColor=none;align=center;verticalAlign=middle;whiteSpace=wrap;rounded=0;" vertex="1" parent="-XJPGZjfDVbzP9hAWu_B-275">
          <mxGeometry x="8" width="39" height="30" as="geometry" />
        </mxCell>
        <mxCell id="-XJPGZjfDVbzP9hAWu_B-278" value="" style="rounded=0;whiteSpace=wrap;html=1;" vertex="1" parent="WIyWlLk6GJQsqaUBKTNV-1">
          <mxGeometry x="2313" y="1784" width="487" height="60" as="geometry" />
        </mxCell>
        <mxCell id="-XJPGZjfDVbzP9hAWu_B-279" value="" style="rounded=0;whiteSpace=wrap;html=1;" vertex="1" parent="WIyWlLk6GJQsqaUBKTNV-1">
          <mxGeometry x="2313" y="1694" width="487" height="60" as="geometry" />
        </mxCell>
        <mxCell id="-XJPGZjfDVbzP9hAWu_B-280" value="" style="rounded=0;whiteSpace=wrap;html=1;" vertex="1" parent="WIyWlLk6GJQsqaUBKTNV-1">
          <mxGeometry x="2813" y="1694" width="487" height="60" as="geometry" />
        </mxCell>
        <mxCell id="-XJPGZjfDVbzP9hAWu_B-281" value="" style="rounded=0;whiteSpace=wrap;html=1;" vertex="1" parent="WIyWlLk6GJQsqaUBKTNV-1">
          <mxGeometry x="2813" y="1784" width="487" height="60" as="geometry" />
        </mxCell>
        <mxCell id="-XJPGZjfDVbzP9hAWu_B-283" value="" style="edgeStyle=none;orthogonalLoop=1;jettySize=auto;html=1;rounded=0;exitX=1;exitY=0;exitDx=0;exitDy=0;" edge="1" parent="WIyWlLk6GJQsqaUBKTNV-1" source="-XJPGZjfDVbzP9hAWu_B-249">
          <mxGeometry width="100" relative="1" as="geometry">
            <mxPoint x="750" y="1687" as="sourcePoint" />
            <mxPoint x="850" y="1687" as="targetPoint" />
            <Array as="points">
              <mxPoint x="73" y="1684" />
            </Array>
          </mxGeometry>
        </mxCell>
        <mxCell id="-XJPGZjfDVbzP9hAWu_B-284" value="prev.next = curr.next" style="text;html=1;align=center;verticalAlign=middle;resizable=0;points=[];autosize=1;strokeColor=none;fillColor=none;" vertex="1" parent="WIyWlLk6GJQsqaUBKTNV-1">
          <mxGeometry x="322" y="2178" width="126" height="26" as="geometry" />
        </mxCell>
        <mxCell id="-XJPGZjfDVbzP9hAWu_B-285" value="" style="edgeStyle=none;orthogonalLoop=1;jettySize=auto;html=1;rounded=0;entryX=0.5;entryY=1;entryDx=0;entryDy=0;exitX=1;exitY=1;exitDx=0;exitDy=0;" edge="1" parent="WIyWlLk6GJQsqaUBKTNV-1" source="KwKGg6GuRS-w6h48RUuR-374" target="KwKGg6GuRS-w6h48RUuR-398">
          <mxGeometry width="100" relative="1" as="geometry">
            <mxPoint x="830" y="2178" as="sourcePoint" />
            <mxPoint x="930" y="2178" as="targetPoint" />
            <Array as="points">
              <mxPoint x="31" y="2175" />
              <mxPoint x="935" y="2175" />
            </Array>
          </mxGeometry>
        </mxCell>
        <mxCell id="-XJPGZjfDVbzP9hAWu_B-286" value="prev.next = curr.offset" style="text;html=1;align=center;verticalAlign=middle;resizable=0;points=[];autosize=1;strokeColor=none;fillColor=none;" vertex="1" parent="WIyWlLk6GJQsqaUBKTNV-1">
          <mxGeometry x="319" y="1688" width="133" height="26" as="geometry" />
        </mxCell>
        <mxCell id="-XJPGZjfDVbzP9hAWu_B-287" value="&lt;font style=&quot;font-size: 25px;&quot;&gt;&lt;u&gt;&lt;br&gt;Recalculate the offset for the collision Entry&lt;/u&gt;&lt;/font&gt;" style="text;html=1;align=center;verticalAlign=middle;resizable=0;points=[];autosize=1;strokeColor=none;fillColor=none;" vertex="1" parent="WIyWlLk6GJQsqaUBKTNV-1">
          <mxGeometry x="2545" y="1480" width="497" height="72" as="geometry" />
        </mxCell>
        <mxCell id="wfr9Kd2GL6ypoVb5kk8D-252" style="edgeStyle=orthogonalEdgeStyle;rounded=0;orthogonalLoop=1;jettySize=auto;html=1;entryX=0;entryY=0;entryDx=0;entryDy=0;" edge="1" parent="WIyWlLk6GJQsqaUBKTNV-1" source="wfr9Kd2GL6ypoVb5kk8D-249" target="-XJPGZjfDVbzP9hAWu_B-277">
          <mxGeometry relative="1" as="geometry">
            <Array as="points">
              <mxPoint x="2249" y="1608" />
              <mxPoint x="1821" y="1608" />
            </Array>
          </mxGeometry>
        </mxCell>
        <mxCell id="wfr9Kd2GL6ypoVb5kk8D-249" value="&lt;font style=&quot;font-size: 20px;&quot;&gt;&lt;u&gt;Offset&lt;/u&gt;&lt;/font&gt;" style="text;html=1;align=center;verticalAlign=middle;resizable=0;points=[];autosize=1;strokeColor=none;fillColor=none;" vertex="1" parent="WIyWlLk6GJQsqaUBKTNV-1">
          <mxGeometry x="2213" y="1554" width="71" height="36" as="geometry" />
        </mxCell>
        <mxCell id="wfr9Kd2GL6ypoVb5kk8D-251" value="" style="edgeStyle=none;orthogonalLoop=1;jettySize=auto;html=1;rounded=0;exitX=0;exitY=1;exitDx=0;exitDy=0;" edge="1" parent="WIyWlLk6GJQsqaUBKTNV-1" source="-XJPGZjfDVbzP9hAWu_B-258">
          <mxGeometry width="100" relative="1" as="geometry">
            <mxPoint x="1905" y="1565" as="sourcePoint" />
            <mxPoint x="2210" y="1565" as="targetPoint" />
            <Array as="points">
              <mxPoint x="1972" y="1558" />
            </Array>
          </mxGeometry>
        </mxCell>
        <mxCell id="wfr9Kd2GL6ypoVb5kk8D-253" value="&lt;font color=&quot;#ff6666&quot; style=&quot;font-size: 30px;&quot;&gt;&lt;b&gt;X&lt;/b&gt;&lt;/font&gt;" style="text;html=1;strokeColor=none;fillColor=none;align=center;verticalAlign=middle;whiteSpace=wrap;rounded=0;" vertex="1" parent="WIyWlLk6GJQsqaUBKTNV-1">
          <mxGeometry x="1950.5" y="1595" width="60" height="30" as="geometry" />
        </mxCell>
        <mxCell id="wfr9Kd2GL6ypoVb5kk8D-259" value="" style="edgeStyle=none;orthogonalLoop=1;jettySize=auto;html=1;rounded=0;exitX=1.12;exitY=0.583;exitDx=0;exitDy=0;exitPerimeter=0;" edge="1" parent="WIyWlLk6GJQsqaUBKTNV-1" source="wfr9Kd2GL6ypoVb5kk8D-249">
          <mxGeometry width="100" relative="1" as="geometry">
            <mxPoint x="2445" y="1533" as="sourcePoint" />
            <mxPoint x="2545" y="1533" as="targetPoint" />
            <Array as="points">
              <mxPoint x="2440" y="1575" />
            </Array>
          </mxGeometry>
        </mxCell>
        <mxCell id="wfr9Kd2GL6ypoVb5kk8D-260" value="&lt;font color=&quot;#009900&quot;&gt;&lt;span style=&quot;font-size: 30px;&quot;&gt;&lt;b&gt;Λ&lt;/b&gt;&lt;/span&gt;&lt;/font&gt;" style="text;html=1;strokeColor=none;fillColor=none;align=center;verticalAlign=middle;whiteSpace=wrap;rounded=0;rotation=-178;" vertex="1" parent="WIyWlLk6GJQsqaUBKTNV-1">
          <mxGeometry x="2384.5" y="1561" width="60" height="30" as="geometry" />
        </mxCell>
        <mxCell id="wfr9Kd2GL6ypoVb5kk8D-261" value="" style="edgeStyle=none;orthogonalLoop=1;jettySize=auto;html=1;rounded=0;exitX=1.001;exitY=0.729;exitDx=0;exitDy=0;exitPerimeter=0;entryX=0;entryY=0;entryDx=0;entryDy=0;" edge="1" parent="WIyWlLk6GJQsqaUBKTNV-1" source="-XJPGZjfDVbzP9hAWu_B-287" target="-XJPGZjfDVbzP9hAWu_B-280">
          <mxGeometry width="100" relative="1" as="geometry">
            <mxPoint x="3210" y="1513" as="sourcePoint" />
            <mxPoint x="3310" y="1513" as="targetPoint" />
            <Array as="points">
              <mxPoint x="3118" y="1605" />
              <mxPoint x="2813" y="1605" />
            </Array>
          </mxGeometry>
        </mxCell>
        <mxCell id="wfr9Kd2GL6ypoVb5kk8D-262" value="&lt;font color=&quot;#009900&quot;&gt;&lt;span style=&quot;font-size: 30px;&quot;&gt;&lt;b&gt;Λ&lt;/b&gt;&lt;/span&gt;&lt;/font&gt;" style="text;html=1;strokeColor=none;fillColor=none;align=center;verticalAlign=middle;whiteSpace=wrap;rounded=0;rotation=-178;" vertex="1" parent="WIyWlLk6GJQsqaUBKTNV-1">
          <mxGeometry x="2994.5" y="1591" width="60" height="30" as="geometry" />
        </mxCell>
      </root>
    </mxGraphModel>
  </diagram>
  <diagram id="PypnTWGg4owzmps0ekAj" name="Details">
    <mxGraphModel dx="3414" dy="674" grid="0" gridSize="10" guides="1" tooltips="1" connect="1" arrows="1" fold="1" page="0" pageScale="1" pageWidth="850" pageHeight="1100" math="0" shadow="0">
      <root>
        <mxCell id="0" />
        <mxCell id="1" parent="0" />
        <mxCell id="AakZq45WI4A0fORZxVml-1" value="" style="group" parent="1" vertex="1" connectable="0">
          <mxGeometry x="-975.5" y="251" width="315.5" height="216" as="geometry" />
        </mxCell>
        <mxCell id="AakZq45WI4A0fORZxVml-2" value="" style="whiteSpace=wrap;html=1;aspect=fixed;fillColor=#eeeeee;strokeColor=#36393d;" parent="AakZq45WI4A0fORZxVml-1" vertex="1">
          <mxGeometry x="53.5" y="1.5" width="214.5" height="214.5" as="geometry" />
        </mxCell>
        <mxCell id="AakZq45WI4A0fORZxVml-3" value="&lt;h1 style=&quot;font-size: 20px; line-height: 40%;&quot;&gt;&lt;span style=&quot;font-weight: normal;&quot;&gt;Max Size Of Entries&amp;nbsp;&lt;/span&gt;&lt;/h1&gt;&lt;h1 style=&quot;font-size: 20px; line-height: 40%;&quot;&gt;&lt;span style=&quot;font-weight: normal;&quot;&gt;*&amp;nbsp;&lt;/span&gt;&lt;/h1&gt;&lt;h1 style=&quot;font-size: 20px; line-height: 40%;&quot;&gt;&lt;span style=&quot;font-weight: normal;&quot;&gt;Size Of Entry&amp;nbsp;&lt;/span&gt;&lt;/h1&gt;&lt;p style=&quot;font-size: 20px; line-height: 40%;&quot;&gt;&lt;font style=&quot;font-size: 20px;&quot;&gt;+&lt;/font&gt;&lt;/p&gt;&lt;p style=&quot;font-size: 20px; line-height: 40%;&quot;&gt;&lt;font style=&quot;font-size: 20px;&quot;&gt;&amp;nbsp;4 (Prev Entries)&lt;/font&gt;&lt;/p&gt;" style="text;html=1;strokeColor=none;fillColor=none;spacing=5;spacingTop=-20;whiteSpace=wrap;overflow=hidden;rounded=0;align=center;" parent="AakZq45WI4A0fORZxVml-1" vertex="1">
          <mxGeometry y="80" width="315.5" height="135" as="geometry" />
        </mxCell>
        <mxCell id="AakZq45WI4A0fORZxVml-4" value="&lt;h1 style=&quot;border-color: var(--border-color); color: rgb(0, 0, 0); font-family: Helvetica; font-style: normal; font-variant-ligatures: normal; font-variant-caps: normal; letter-spacing: normal; orphans: 2; text-indent: 0px; text-transform: none; widows: 2; word-spacing: 0px; -webkit-text-stroke-width: 0px; background-color: rgb(255, 255, 255); text-decoration-thickness: initial; text-decoration-style: initial; text-decoration-color: initial; font-size: 20px; line-height: 50%;&quot;&gt;&lt;font style=&quot;border-color: var(--border-color); font-size: 20px;&quot;&gt;File Size&amp;nbsp;&lt;/font&gt;&lt;/h1&gt;" style="text;whiteSpace=wrap;html=1;align=center;" parent="AakZq45WI4A0fORZxVml-1" vertex="1">
          <mxGeometry x="98.25" width="125" height="73" as="geometry" />
        </mxCell>
        <mxCell id="AakZq45WI4A0fORZxVml-5" value="" style="endArrow=none;html=1;rounded=0;exitX=0;exitY=0.25;exitDx=0;exitDy=0;entryX=1;entryY=0.25;entryDx=0;entryDy=0;" parent="AakZq45WI4A0fORZxVml-1" source="AakZq45WI4A0fORZxVml-2" target="AakZq45WI4A0fORZxVml-2" edge="1">
          <mxGeometry width="50" height="50" relative="1" as="geometry">
            <mxPoint x="420.5" y="74" as="sourcePoint" />
            <mxPoint x="470.5" y="24" as="targetPoint" />
          </mxGeometry>
        </mxCell>
        <mxCell id="n73naVxyAZG9kpemjOxY-4" value="" style="group" parent="1" vertex="1" connectable="0">
          <mxGeometry x="-597" y="246" width="336" height="220" as="geometry" />
        </mxCell>
        <mxCell id="n73naVxyAZG9kpemjOxY-3" value="&lt;div style=&quot;text-align: left; line-height: 200%;&quot;&gt;&lt;span style=&quot;font-size: 20px; background-color: initial;&quot;&gt;&amp;nbsp;-Resize&#39;s the size of the file by 2.&lt;/span&gt;&lt;/div&gt;&lt;font style=&quot;font-size: 20px;&quot;&gt;&lt;div style=&quot;text-align: left; line-height: 200%;&quot;&gt;&lt;span style=&quot;background-color: initial;&quot;&gt;&amp;nbsp;-Zero&#39;s all the flag &amp;amp; next positions.&lt;/span&gt;&lt;/div&gt;&lt;div style=&quot;text-align: left; line-height: 140%;&quot;&gt;&lt;font style=&quot;background-color: initial;&quot;&gt;&amp;nbsp;-Put&#39;s the previous items to resized&amp;nbsp; &amp;nbsp; &amp;nbsp; &amp;nbsp;file (with new hash&lt;/font&gt;&lt;span style=&quot;background-color: initial;&quot;&gt;).&lt;/span&gt;&lt;/div&gt;&lt;/font&gt;" style="rounded=0;whiteSpace=wrap;html=1;fillColor=#f5f5f5;gradientColor=#b3b3b3;strokeColor=#666666;" parent="n73naVxyAZG9kpemjOxY-4" vertex="1">
          <mxGeometry y="62" width="336" height="158" as="geometry" />
        </mxCell>
        <mxCell id="n73naVxyAZG9kpemjOxY-1" value="&lt;font style=&quot;font-size: 30px;&quot;&gt;&lt;b&gt;RESIZE&lt;/b&gt;&lt;/font&gt;" style="shape=process;whiteSpace=wrap;html=1;backgroundOutline=1;fillColor=#f5f5f5;gradientColor=#b3b3b3;strokeColor=#666666;" parent="n73naVxyAZG9kpemjOxY-4" vertex="1">
          <mxGeometry x="83" width="164" height="60" as="geometry" />
        </mxCell>
        <mxCell id="PaZuWKfPvtW26bqWn_ic-9" value="" style="group" parent="1" vertex="1" connectable="0">
          <mxGeometry x="-1276" y="250" width="315.5" height="288" as="geometry" />
        </mxCell>
        <mxCell id="PaZuWKfPvtW26bqWn_ic-5" value="" style="whiteSpace=wrap;html=1;fillColor=#eeeeee;strokeColor=#36393d;" parent="PaZuWKfPvtW26bqWn_ic-9" vertex="1">
          <mxGeometry x="50.75" width="214" height="288" as="geometry" />
        </mxCell>
        <mxCell id="PaZuWKfPvtW26bqWn_ic-6" value="&lt;h1 style=&quot;border-color: var(--border-color); color: rgb(0, 0, 0); font-family: Helvetica; font-style: normal; font-variant-ligatures: normal; font-variant-caps: normal; letter-spacing: normal; orphans: 2; text-indent: 0px; text-transform: none; widows: 2; word-spacing: 0px; -webkit-text-stroke-width: 0px; background-color: rgb(255, 255, 255); text-decoration-thickness: initial; text-decoration-style: initial; text-decoration-color: initial; font-size: 20px; line-height: 50%;&quot;&gt;&lt;font style=&quot;border-color: var(--border-color); font-size: 20px;&quot;&gt;Offset&lt;/font&gt;&lt;/h1&gt;" style="text;whiteSpace=wrap;html=1;align=center;" parent="PaZuWKfPvtW26bqWn_ic-9" vertex="1">
          <mxGeometry x="95.25" y="5" width="125" height="73" as="geometry" />
        </mxCell>
        <mxCell id="PaZuWKfPvtW26bqWn_ic-7" value="" style="endArrow=none;html=1;rounded=0;exitX=0;exitY=0.25;exitDx=0;exitDy=0;entryX=1;entryY=0.25;entryDx=0;entryDy=0;" parent="PaZuWKfPvtW26bqWn_ic-9" edge="1">
          <mxGeometry width="50" height="50" relative="1" as="geometry">
            <mxPoint x="50.75" y="55.625" as="sourcePoint" />
            <mxPoint x="264.75" y="55.625" as="targetPoint" />
          </mxGeometry>
        </mxCell>
        <mxCell id="7PX-3Xf2D0vAk00eK6zj-3" value="&lt;h1 style=&quot;border-color: var(--border-color); font-size: 20px; line-height: 50%;&quot;&gt;&lt;span style=&quot;font-weight: normal;&quot;&gt;(Key.hashCode&lt;/span&gt;&amp;nbsp;&lt;/h1&gt;&lt;h1 style=&quot;border-color: var(--border-color); font-size: 20px; line-height: 8px;&quot;&gt;&lt;span style=&quot;border-color: var(--border-color); font-weight: 400;&quot;&gt;%&lt;/span&gt;&lt;/h1&gt;&lt;h1 style=&quot;border-color: var(--border-color); font-size: 20px; line-height: 8px;&quot;&gt;&lt;span style=&quot;border-color: var(--border-color); font-weight: normal;&quot;&gt;Max Entries)&amp;nbsp;&lt;/span&gt;&lt;/h1&gt;&lt;h1 style=&quot;font-size: 20px; line-height: 40%;&quot;&gt;&lt;p style=&quot;border-color: var(--border-color); font-weight: 400; line-height: 8px;&quot;&gt;*&lt;/p&gt;&lt;p style=&quot;border-color: var(--border-color); font-weight: 400; line-height: 8px;&quot;&gt;&lt;font style=&quot;border-color: var(--border-color);&quot;&gt;&amp;nbsp;Size Of Entry&lt;/font&gt;&lt;/p&gt;&lt;p style=&quot;border-color: var(--border-color); font-weight: 400; line-height: 8px;&quot;&gt;&lt;font style=&quot;border-color: var(--border-color);&quot;&gt;+&lt;/font&gt;&lt;/p&gt;&lt;p style=&quot;border-color: var(--border-color); font-weight: 400; line-height: 8px;&quot;&gt;&lt;font style=&quot;border-color: var(--border-color);&quot;&gt;4 (Stored Entries)&lt;/font&gt;&lt;/p&gt;&lt;/h1&gt;" style="text;html=1;strokeColor=none;fillColor=none;spacing=5;spacingTop=-20;whiteSpace=wrap;overflow=hidden;rounded=0;align=center;" parent="PaZuWKfPvtW26bqWn_ic-9" vertex="1">
          <mxGeometry y="78" width="315.5" height="179" as="geometry" />
        </mxCell>
        <mxCell id="xrdUvnWR7g5zQ6NvTMvN-4" value="" style="group" vertex="1" connectable="0" parent="1">
          <mxGeometry x="54" y="242" width="218" height="195" as="geometry" />
        </mxCell>
        <mxCell id="xrdUvnWR7g5zQ6NvTMvN-2" value="&lt;div style=&quot;text-align: left; line-height: 200%;&quot;&gt;&lt;span style=&quot;font-size: 20px; background-color: initial;&quot;&gt;&amp;nbsp;- Flag = 0&lt;/span&gt;&lt;span style=&quot;background-color: initial; font-size: 20px;&quot;&gt;&amp;nbsp;&lt;/span&gt;&lt;/div&gt;&lt;div style=&quot;text-align: left; line-height: 200%;&quot;&gt;&lt;span style=&quot;font-size: 20px;&quot;&gt;&amp;nbsp;- prev.next = curr.next&lt;/span&gt;&lt;/div&gt;&lt;font style=&quot;font-size: 20px;&quot;&gt;&lt;div style=&quot;text-align: left; line-height: 200%;&quot;&gt;&lt;font style=&quot;background-color: initial;&quot;&gt;&amp;nbsp;- Stored Entries -1&lt;/font&gt;&lt;/div&gt;&lt;/font&gt;" style="rounded=0;whiteSpace=wrap;html=1;fillColor=#f5f5f5;gradientColor=#b3b3b3;strokeColor=#666666;" vertex="1" parent="xrdUvnWR7g5zQ6NvTMvN-4">
          <mxGeometry y="80" width="218" height="115" as="geometry" />
        </mxCell>
        <mxCell id="xrdUvnWR7g5zQ6NvTMvN-3" value="&lt;span style=&quot;font-size: 30px;&quot;&gt;&lt;b&gt;REMOVE&lt;br&gt;COLLISION&lt;br&gt;&lt;/b&gt;&lt;/span&gt;" style="shape=process;whiteSpace=wrap;html=1;backgroundOutline=1;fillColor=#f5f5f5;gradientColor=#b3b3b3;strokeColor=#666666;" vertex="1" parent="xrdUvnWR7g5zQ6NvTMvN-4">
          <mxGeometry width="217" height="80" as="geometry" />
        </mxCell>
        <mxCell id="xrdUvnWR7g5zQ6NvTMvN-5" value="" style="group" vertex="1" connectable="0" parent="1">
          <mxGeometry x="-183" y="252" width="201" height="175" as="geometry" />
        </mxCell>
        <mxCell id="dpPyuv-d0UzgSQNHN4UX-2" value="&lt;div style=&quot;text-align: left; line-height: 200%;&quot;&gt;&lt;span style=&quot;font-size: 20px; background-color: initial;&quot;&gt;&amp;nbsp;- Flag = 0&lt;/span&gt;&lt;span style=&quot;background-color: initial; font-size: 20px;&quot;&gt;&amp;nbsp;&lt;/span&gt;&lt;/div&gt;&lt;font style=&quot;font-size: 20px;&quot;&gt;&lt;div style=&quot;text-align: left; line-height: 200%;&quot;&gt;&lt;font style=&quot;background-color: initial;&quot;&gt;&amp;nbsp;- Stored Entries -1&lt;/font&gt;&lt;/div&gt;&lt;/font&gt;" style="rounded=0;whiteSpace=wrap;html=1;fillColor=#f5f5f5;gradientColor=#b3b3b3;strokeColor=#666666;" vertex="1" parent="xrdUvnWR7g5zQ6NvTMvN-5">
          <mxGeometry y="60" width="201" height="115" as="geometry" />
        </mxCell>
        <mxCell id="dpPyuv-d0UzgSQNHN4UX-3" value="&lt;span style=&quot;font-size: 30px;&quot;&gt;&lt;b&gt;REMOVE&lt;/b&gt;&lt;/span&gt;" style="shape=process;whiteSpace=wrap;html=1;backgroundOutline=1;fillColor=#f5f5f5;gradientColor=#b3b3b3;strokeColor=#666666;" vertex="1" parent="xrdUvnWR7g5zQ6NvTMvN-5">
          <mxGeometry x="18.5" width="164" height="60" as="geometry" />
        </mxCell>
        <mxCell id="2hiXMjznIjAnC_Sr74tZ-5" value="" style="group" vertex="1" connectable="0" parent="1">
          <mxGeometry x="66" y="492" width="218" height="214" as="geometry" />
        </mxCell>
        <mxCell id="2hiXMjznIjAnC_Sr74tZ-6" value="&lt;div style=&quot;text-align: left; line-height: 200%;&quot;&gt;&lt;span style=&quot;font-size: 20px; background-color: initial;&quot;&gt;&amp;nbsp;- Recalculate Offset !&lt;/span&gt;&lt;/div&gt;&lt;div style=&quot;text-align: left; line-height: 200%;&quot;&gt;&lt;span style=&quot;font-size: 20px; background-color: initial;&quot;&gt;&amp;nbsp;- prev.next = curr.offset&lt;/span&gt;&lt;/div&gt;&lt;div style=&quot;text-align: left; line-height: 200%;&quot;&gt;&lt;span style=&quot;background-color: initial; font-size: 20px;&quot;&gt;&amp;nbsp;- Flag = 1&amp;nbsp;&lt;/span&gt;&lt;/div&gt;&lt;div style=&quot;text-align: left; line-height: 200%;&quot;&gt;&lt;span style=&quot;font-size: 20px;&quot;&gt;&amp;nbsp;&lt;/span&gt;&lt;span style=&quot;background-color: initial; font-size: 20px;&quot;&gt;- Stored Entries +1&lt;/span&gt;&lt;/div&gt;" style="rounded=0;whiteSpace=wrap;html=1;fillColor=#f5f5f5;gradientColor=#b3b3b3;strokeColor=#666666;" vertex="1" parent="2hiXMjznIjAnC_Sr74tZ-5">
          <mxGeometry y="80" width="218" height="134" as="geometry" />
        </mxCell>
        <mxCell id="2hiXMjznIjAnC_Sr74tZ-7" value="&lt;span style=&quot;font-size: 30px;&quot;&gt;&lt;b&gt;ADD&lt;br&gt;COLLISION&lt;br&gt;&lt;/b&gt;&lt;/span&gt;" style="shape=process;whiteSpace=wrap;html=1;backgroundOutline=1;fillColor=#f5f5f5;gradientColor=#b3b3b3;strokeColor=#666666;" vertex="1" parent="2hiXMjznIjAnC_Sr74tZ-5">
          <mxGeometry width="217" height="80" as="geometry" />
        </mxCell>
      </root>
    </mxGraphModel>
  </diagram>
</mxfile>
